<svg id="Layer_1" enable-background="new 0 0 256 256" height="512" viewBox="0 0 256 256" width="512" xmlns="http://www.w3.org/2000/svg"><g><g><g><g><path d="m228.944 189.433h-201.888c-4.06 0-7.351-3.291-7.351-7.351v-143.498c0-4.06 3.291-7.351 7.351-7.351h201.888c4.06 0 7.351 3.291 7.351 7.351v143.497c0 4.06-3.291 7.352-7.351 7.352z" fill="#808285"/></g></g><g><g><path d="m231.003 31.525c.19.653.293 1.344.293 2.059v143.497c0 4.061-3.291 7.352-7.351 7.352h-201.889c-.715 0-1.405-.103-2.059-.293.89 3.058 3.713 5.293 7.059 5.293h201.888c4.06 0 7.351-3.291 7.351-7.352v-143.497c0-3.345-2.235-6.168-5.292-7.059z" fill="#58595b"/></g></g><g><g><path d="m104.522 189.433h46.956v33.492h-46.956z" fill="#808285"/></g></g><g><g><path d="m141.478 189.433v19.492c0 2.209-1.791 4-4 4h-32.956v10h46.956v-33.492z" fill="#58595b"/></g></g><g><g><path d="m227.763 164.283h-199.526c-1.202 0-2.177-.975-2.177-2.177v-122.813c0-1.202.975-2.177 2.177-2.177h199.525c1.202 0 2.177.975 2.177 2.177v122.813c.001 1.202-.974 2.177-2.176 2.177z" fill="#478cf7"/></g></g><g><path d="m227.763 37.116h-7.823v114.99c0 1.202-.975 2.177-2.177 2.177h-191.703v7.823c0 1.202.975 2.177 2.177 2.177h199.525c1.202 0 2.177-.975 2.177-2.177v-122.813c.001-1.203-.974-2.177-2.176-2.177z" fill="#377de2"/></g><g><path d="m32.06 98.75c-1.1 0-2-.9-2-2v-53.63c0-.53.21-1.05.59-1.42.37-.37.881-.58 1.41-.58h26.37c1.101 0 2 .89 2 2 0 1.1-.899 1.99-2 1.99h-24.37v51.64c0 1.1-.9 2-2 2zm34.37-53.64c-1.11 0-2-.89-2-1.99 0-1.11.89-2 2-2 1.101 0 2 .89 2 2 0 1.1-.9 1.99-2 1.99z" fill="#5e9cf7"/></g><g><g><path d="m227.763 37.116h-2.823v119.99c0 1.203-.975 2.177-2.177 2.177h-196.703v2.823c0 1.203.975 2.177 2.177 2.177h199.525c1.202 0 2.177-.975 2.177-2.177v-122.813c.001-1.203-.974-2.177-2.176-2.177z" fill="#2266d3"/></g></g><g><g><path d="m163.959 236.571h-71.918c-3.179 0-5.756-2.577-5.756-5.756v-2.135c0-3.179 2.577-5.756 5.756-5.756h71.917c3.179 0 5.756 2.577 5.756 5.756v2.135c0 3.179-2.577 5.756-5.755 5.756z" fill="#808285"/></g></g><g><g><path d="m164.67 222.969c.029.233.044.471.044.712v2.135c0 3.179-2.577 5.755-5.756 5.755h-71.917c-.241 0-.479-.015-.712-.043.351 2.843 2.774 5.043 5.712 5.043h71.917c3.179 0 5.756-2.577 5.756-5.755v-2.135c0-2.938-2.201-5.362-5.044-5.712z" fill="#58595b"/></g></g><g><g><path d="m136.104 178.121h-16.209c-1.872 0-3.389-1.517-3.389-3.389 0-1.872 1.517-3.389 3.389-3.389h16.209c1.872 0 3.389 1.517 3.389 3.389.001 1.872-1.517 3.389-3.389 3.389z" fill="#fff"/></g></g></g><g><g><g><path d="m126.373 121.679v-44.255c0-1.759-.938-3.384-2.462-4.264l-38.326-22.127c-1.523-.879-3.4-.879-4.923 0l-38.326 22.127c-1.523.879-2.462 2.505-2.462 4.264v44.255c0 1.759.938 3.384 2.462 4.264l38.326 22.128c1.523.879 3.4.879 4.923 0l38.326-22.128c1.523-.88 2.462-2.505 2.462-4.264z" fill="#58595b"/></g><g><path d="m83.123 50.373c-.85 0-1.7.22-2.462.66l-38.325 22.127c-1.523.879-2.462 2.505-2.462 4.264v44.255c0 .879.235 1.726.66 2.462l42.59-24.589v-49.179z" fill="#808285"/></g><g><path d="m83.124 99.552-42.59 24.589c.424.734 1.037 1.359 1.796 1.799l24.883 14.366 13.449 7.765c1.523.879 3.4.879 4.923 0l13.449-7.765 24.883-14.366c.759-.439 1.372-1.064 1.796-1.799z" fill="#414042"/></g></g><g><circle cx="83.124" cy="99.552" fill="#f1f2f2" r="28.36"/></g><g><path d="m97.543 75.132c2.501 4.226 3.941 9.153 3.941 14.419 0 15.663-12.697 28.36-28.36 28.36-5.266 0-10.194-1.44-14.419-3.941 4.937 8.343 14.022 13.941 24.419 13.941 15.663 0 28.36-12.697 28.36-28.36 0-10.396-5.598-19.481-13.941-24.419z" fill="#e6e7e8"/></g></g><g><path d="m209.969 148.73h-69.96c-2.209 0-4-1.791-4-4v-91.118c0-2.209 1.791-4 4-4h69.96c2.209 0 4 1.791 4 4v91.118c0 2.209-1.791 4-4 4z" fill="#58595b"/></g><g><path d="m209.969 49.612h-69.96c-2.209 0-4 1.791-4 4v10.108h77.96v-10.108c0-2.209-1.791-4-4-4z" fill="#939598"/></g><g><circle cx="144.346" cy="56.665" fill="#fff" r="2.424"/></g><g><circle cx="152.308" cy="56.665" fill="#fff" r="2.424"/></g><g><circle cx="160.269" cy="56.665" fill="#fff" r="2.424"/></g><g><g><path d="m166.967 75.661h-22.62c-1.104 0-2-.896-2-2s.896-2 2-2h22.62c1.104 0 2 .896 2 2s-.896 2-2 2z" fill="#939598"/></g><g><path d="m203.967 86.33h-59.62c-1.104 0-2-.896-2-2s.896-2 2-2h59.62c1.104 0 2 .896 2 2s-.896 2-2 2z" fill="#fff"/></g><g><path d="m195.231 97h-50.885c-1.104 0-2-.896-2-2s.896-2 2-2h50.885c1.104 0 2 .896 2 2s-.895 2-2 2z" fill="#fff"/></g><g><path d="m203.967 107.669h-59.62c-1.104 0-2-.896-2-2s.896-2 2-2h59.62c1.104 0 2 .896 2 2s-.896 2-2 2z" fill="#fff"/></g><g><path d="m166.967 118.339h-22.62c-1.104 0-2-.896-2-2s.896-2 2-2h22.62c1.104 0 2 .896 2 2s-.896 2-2 2z" fill="#939598"/></g><g><path d="m203.967 129.009h-59.62c-1.104 0-2-.896-2-2s.896-2 2-2h59.62c1.104 0 2 .896 2 2s-.896 2-2 2z" fill="#fff"/></g><g><path d="m166.967 139.678h-22.62c-1.104 0-2-.896-2-2s.896-2 2-2h22.62c1.104 0 2 .896 2 2s-.896 2-2 2z" fill="#fff"/></g></g><g><path d="m105.593 98.266-10.008-10.008c-.71-.71-1.861-.71-2.571 0s-.71 1.861 0 2.571l8.722 8.723-8.722 8.723c-.71.71-.71 1.861 0 2.571.355.355.82.532 1.285.532s.93-.178 1.285-.532l10.008-10.008c.712-.711.712-1.862.001-2.572zm-17.815-10.412c-.934-.371-1.99.084-2.361 1.017l-7.964 20.017c-.371.933.084 1.99 1.017 2.361.221.088.448.129.672.129.723 0 1.406-.434 1.69-1.146l7.964-20.017c.37-.932-.085-1.99-1.018-2.361zm-14.545 2.975-8.723 8.723 8.723 8.723c.71.71.71 1.861 0 2.571-.355.355-.82.532-1.286.532s-.931-.178-1.286-.532l-10.008-10.008c-.71-.71-.71-1.861 0-2.571l10.008-10.008c.71-.71 1.861-.71 2.571 0 .711.709.711 1.86.001 2.57z" fill="#808285"/></g></g></svg>