<svg id="Layer_1" enable-background="new 0 0 512 512" height="512" viewBox="0 0 512 512" width="512" xmlns="http://www.w3.org/2000/svg"><g><g><g><g><g><path d="m256 149.849-164.81 82.958 164.81 82.959 164.81-82.959z" fill="#fcb1e6"/></g><path d="m256 315.503v196.497l164.81-82.959v-196.234z" fill="#fc7bd6"/><path d="m379.602 253.484v196.299l41.208-20.742v-196.234z" fill="#fc65cf"/><path d="m91.19 232.807 164.81 82.696v196.497l-164.81-82.959z" fill="#fc47c7"/></g><g><g><path d="m256 433.132 98.613-49.638-98.613-49.637-98.613 49.637z" fill="#fcb1e6"/></g><path d="m256 334.014v-117.573l-98.613 49.638v117.415z" fill="#fc7bd6"/><path d="m354.613 383.494-98.613-49.48v-117.573l98.613 49.638z" fill="#fc47c7"/></g></g><g><g><path d="m256 0-98.777 48.998 98.777 50.727 98.777-50.727z" fill="#e0e8ff"/></g><path d="m256 99.561v116.88l98.777-48.998v-118.445z" fill="#b3c6ff"/><path d="m313.57 70.092v117.791l41.207-20.441v-118.444z" fill="#a3baff"/><path d="m157.223 48.998 98.777 50.563v116.88l-98.777-48.998z" fill="#96b1ff"/></g></g></g></svg>