<svg height="512" viewBox="0 0 512 512" width="512" xmlns="http://www.w3.org/2000/svg"><g id="filled_outline" data-name="filled outline"><path d="m296 344 147.882 73.941a60 60 0 0 1 32.564 45.18l3.554 24.879h-448l3.554-24.879a60 60 0 0 1 32.564-45.18l147.882-73.941z" fill="#026ca2"/><path d="m216 344h80v144h-80z" fill="#cbcbcb"/><path d="m216 312v32l-8 24v8h96v-8l-8-24v-32z" fill="#fdc9a6"/><path d="m296 312v19.64c-.08.06-.17.11-.25.17a70.9 70.9 0 0 1 -79.75-.17v-19.64z" fill="#fdc9a6"/><path d="m296 312v19.64c-.08.06-.17.11-.25.17a70.9 70.9 0 0 1 -79.75-.17v-19.64z" fill="#e6af89"/><path d="m72 488v-32a8 8 0 0 1 16 0v32z" fill="#015078"/><path d="m424 488v-32a8 8 0 0 1 16 0v32z" fill="#015078"/><path d="m230.857 388.571 9.143 27.429h32l9.143-27.429-25.143-12.571z" fill="#0296e5"/><path d="m240 416-8 72h48l-8-72z" fill="#026ca2"/><path d="m360.925 171.923 3.421-13.6a91.909 91.909 0 0 0 -19.565-82.485 84.136 84.136 0 0 0 -86.433-31.538c-5.306 1.236-10.592 2.465-15.636 3.637a76.04 76.04 0 0 0 -50.812 40.063h-2.124a43.754 43.754 0 0 0 -35 17.5 43.754 43.754 0 0 0 -8.311 32.44l5.435 38.06 2.913 24h197.187l6.585-20.007q1.315-3.993 2.34-8.07z" fill="#55300b"/><path d="m256 328a70.9 70.9 0 0 1 -65.827-44.567 198.156 198.156 0 0 1 -14.173-73.596v-57.837l24-40.73a136.076 136.076 0 0 0 97.087 40.73h38.913v57.837a198.156 198.156 0 0 1 -14.173 73.6 70.9 70.9 0 0 1 -65.827 44.563z" fill="#fdc9a6"/><g fill="#55300b"><path d="m304 184h-24a8 8 0 0 1 0-16h24a8 8 0 0 1 0 16z"/><circle cx="290" cy="202" r="10"/><path d="m232 184h-24a8 8 0 0 1 0-16h24a8 8 0 0 1 0 16z"/><circle cx="222" cy="202" r="10"/></g><path d="m272 280h-32a8 8 0 0 1 0-16h32a8 8 0 0 1 0 16z" fill="#e6af89"/><path d="m264 248h-16a8 8 0 0 1 -8-8v-24a8 8 0 0 1 16 0v16h8a8 8 0 0 1 0 16z" fill="#e6af89"/><path d="m176 176h-11.056a20.944 20.944 0 0 0 -20.944 20.944v14.112a20.944 20.944 0 0 0 2.211 9.366 20.944 20.944 0 0 0 18.733 11.578h14.056z" fill="#fdc9a6"/><path d="m336 176h11.056a20.944 20.944 0 0 1 20.944 20.944v14.112a20.944 20.944 0 0 1 -2.211 9.366 20.944 20.944 0 0 1 -18.733 11.578h-14.056z" fill="#fdc9a6"/><path d="m216 344 40 32-48 24v-32z" fill="#ebebeb"/><path d="m296 344-40 32 48 24v-32z" fill="#ebebeb"/><path d="m216 488h-40l-24-72 64-72z" fill="#0296e5"/><path d="m296 488h40l24-72-64-72z" fill="#0296e5"/><path d="m280 184h24a8 8 0 0 0 0-16h-24a8 8 0 0 0 0 16z"/><circle cx="290" cy="202" r="10"/><path d="m240 176a8 8 0 0 0 -8-8h-24a8 8 0 0 0 0 16h24a8 8 0 0 0 8-8z"/><circle cx="222" cy="202" r="10"/><path d="m272 264h-32a8 8 0 0 0 0 16h32a8 8 0 0 0 0-16z"/><path d="m64.54 410.786a68.013 68.013 0 0 0 -36.906 51.2l-3.554 24.883a8 8 0 0 0 7.92 9.131h448a8 8 0 0 0 7.92-9.131l-3.554-24.88a68.013 68.013 0 0 0 -36.906-51.2l-143.46-71.733v-19.256a78.84 78.84 0 0 0 25.255-33.4 205.454 205.454 0 0 0 12.533-46.4h5.268a28.785 28.785 0 0 0 25.888-16 29.092 29.092 0 0 0 3.056-12.944v-14.112a28.834 28.834 0 0 0 -8.082-20.031l4.186-16.634a100 100 0 0 0 -21.088-89.457 92.217 92.217 0 0 0 -94.484-34.313c-5.3 1.237-10.588 2.466-15.63 3.637a83.761 83.761 0 0 0 -53.822 39.925 52.031 52.031 0 0 0 -38.707 20.629 51.416 51.416 0 0 0 -9.83 38.37l5.423 37.962a28.833 28.833 0 0 0 -7.966 19.912v14.112a29.092 29.092 0 0 0 3.056 12.944 28.785 28.785 0 0 0 25.888 16h5.268a205.454 205.454 0 0 0 12.533 46.4 78.84 78.84 0 0 0 25.255 33.4v19.256zm23.46 69.214v-24a8 8 0 0 0 -16 0v24h-30.776l2.25-15.747a52.014 52.014 0 0 1 28.226-39.153l110.726-55.363-36.4 40.952a8 8 0 0 0 -1.611 7.845l20.485 61.466zm112-80v80h-18.234l-20.714-62.142 38.948-43.816zm240.3 25.1a52.014 52.014 0 0 1 28.222 39.156l2.254 15.744h-30.776v-24a8 8 0 0 0 -16 0v24h-76.9l20.49-61.47a8 8 0 0 0 -1.611-7.845l-36.4-40.952zm-128.3-25.1v-25.958l38.948 43.816-20.714 62.142h-18.234zm-87.16 80h-8.84v-75.056l10.184-5.092 5.671 17.012zm16.4-105.564-25.24 12.62v-17.756l3.961-11.883zm-17.24-34.281v-10.87a79.6 79.6 0 0 0 64 0v10.87l-32 25.6zm16.938 139.845 6.222-56h17.68l6.222 56zm25.3-72h-20.472l-5.125-15.376 15.359-7.68 15.359 7.68zm29.762 72h-8.84l-7.015-63.136 5.671-17.012 10.184 5.092zm0-92.944-25.239-12.62 21.278-17.021 3.961 11.885zm64-176a13.024 13.024 0 0 1 -1.366 5.789 12.876 12.876 0 0 1 -11.578 7.155h-3.543q.48-7.049.487-14.163v-25.837h3.056a12.959 12.959 0 0 1 12.944 12.944zm-195.056 12.944a12.876 12.876 0 0 1 -11.578-7.155 13.024 13.024 0 0 1 -1.366-5.789v-14.112a12.959 12.959 0 0 1 12.944-12.944h3.056v25.837q0 7.113.487 14.163zm4.163-76.062a8.015 8.015 0 0 0 -1.107 4.062v16h-3.056a28.944 28.944 0 0 0 -6.015.633l-4.546-31.824a35.511 35.511 0 0 1 6.79-26.507 35.925 35.925 0 0 1 28.6-14.3h2.127a8 8 0 0 0 7.156-4.422 67.841 67.841 0 0 1 45.465-35.85c5.046-1.171 10.334-2.4 15.642-3.638a76.215 76.215 0 0 1 78.218 28.55c.11.147.225.289.345.428a83.993 83.993 0 0 1 17.862 75.305l-3.108 12.353a28.888 28.888 0 0 0 -6.424-.728h-3.056v-16a8 8 0 0 0 -8-8h-38.913a128.849 128.849 0 0 1 -91.379-38.335 8 8 0 0 0 -12.6 1.543zm28.493 132.524a189.337 189.337 0 0 1 -13.6-70.625v-55.655l17.8-30.2a145.057 145.057 0 0 0 95.287 36.018h30.913v49.837a189.337 189.337 0 0 1 -13.6 70.625 62.9 62.9 0 0 1 -116.8 0z"/><path d="m240 240a8 8 0 0 0 8 8h16a8 8 0 0 0 0-16h-8v-16a8 8 0 0 0 -16 0z"/></g></svg>