<svg height="436pt" viewBox="0 -83 436.90667 436" width="436pt" xmlns="http://www.w3.org/2000/svg"><path d="m68.265625 208.027344-48.210937-140.632813s60.324218 167.679688 126.136718-27.046875c0 0 71.292969 210.953125 137.105469 0 0 0 54.839844 189.316406 131.621094 32.453125l-46.277344 135.226563zm0 0" fill="#feda38"/><path d="m368.640625 214.855469h-300.375c-2.917969 0-5.511719-1.855469-6.457031-4.613281l-48.214844-140.632813c-1.214844-3.546875.660156-7.40625 4.191406-8.652344 3.554688-1.226562 7.421875.601563 8.6875 4.125 6.296875 17.449219 27.902344 62.601563 52.132813 62.601563h.195312c14.039063-.140625 36.007813-15.785156 60.925781-89.519532.941407-2.773437 3.539063-4.640624 6.464844-4.640624 2.929688 0 5.527344 1.867187 6.46875 4.640624 8.40625 24.839844 36.582032 89.121094 65.839844 89.121094.078125 0 .152344-.007812.234375-.007812 13.871094-.167969 35.199219-15.734375 58.039063-88.960938.894531-2.851562 3.53125-4.792968 6.519531-4.792968h.066406c3.015625.035156 5.652344 2.03125 6.488281 4.925781 6.980469 24.042969 31.738282 87.007812 62.105469 89.636719 17.742187 1.457031 37.414063-18.621094 56.835937-58.28125 1.578126-3.238282 5.414063-4.691407 8.746094-3.308594 3.324219 1.382812 5.011719 5.109375 3.847656 8.523437l-46.28125 135.222657c-.949218 2.761718-3.542968 4.613281-6.460937 4.613281zm-295.5-13.652344h290.617187l26.746094-78.148437c-12.925781 13.679687-26.050781 19.78125-39.738281 18.632812-33.632813-2.925781-56.710937-51.390625-67.441406-79.878906-18.953125 52.90625-40.113281 78.832031-64.433594 79.117187-.132813 0-.257813.007813-.390625.007813-33.988281 0-60.226562-52.105469-72.113281-80.847656-20.605469 54.386718-42.753907 81.007812-67.460938 81.246093-11.578125.121094-22.40625-6.023437-31.367187-14.765625zm0 0"/><path d="m68.265625 208.027344h300.375v54.613281h-300.375zm0 0" fill="#fcad3a"/><path d="m368.640625 269.46875h-300.375c-3.773437 0-6.824219-3.054688-6.824219-6.828125v-54.613281c0-3.773438 3.050782-6.824219 6.824219-6.824219h300.375c3.773437 0 6.824219 3.050781 6.824219 6.824219v54.613281c0 3.773437-3.050782 6.828125-6.824219 6.828125zm-293.546875-13.652344h286.71875v-40.960937h-286.71875zm0 0"/><path d="m165.546875 23.816406c0 9.132813-7.402344 16.535156-16.535156 16.535156-9.128907 0-16.535157-7.402343-16.535157-16.535156 0-9.132812 7.40625-16.535156 16.535157-16.535156 9.132812 0 16.535156 7.402344 16.535156 16.535156zm0 0" fill="#feda38"/><path d="m149.011719 47.175781c-12.878907 0-23.359375-10.480469-23.359375-23.363281 0-12.878906 10.480468-23.359375 23.359375-23.359375 12.882812 0 23.363281 10.484375 23.363281 23.363281s-10.480469 23.359375-23.363281 23.359375zm0-33.066406c-5.351563 0-9.707031 4.355469-9.707031 9.707031 0 5.355469 4.355468 9.707032 9.707031 9.707032 5.355469 0 9.707031-4.355469 9.707031-9.707032 0-5.355468-4.351562-9.707031-9.707031-9.707031zm0 0"/><path d="m297.8125 23.816406c0 9.132813-7.402344 16.535156-16.535156 16.535156-9.128906 0-16.53125-7.402343-16.53125-16.535156 0-9.132812 7.402344-16.535156 16.53125-16.535156 9.132812 0 16.535156 7.402344 16.535156 16.535156zm0 0" fill="#feda38"/><path d="m281.277344 47.175781c-12.878906 0-23.359375-10.480469-23.359375-23.363281 0-12.878906 10.480469-23.359375 23.359375-23.359375 12.882812 0 23.363281 10.484375 23.363281 23.363281s-10.480469 23.359375-23.363281 23.359375zm0-33.066406c-5.351563 0-9.707032 4.355469-9.707032 9.707031 0 5.355469 4.355469 9.707032 9.707032 9.707032 5.355468 0 9.710937-4.351563 9.710937-9.707032 0-5.351562-4.355469-9.707031-9.710937-9.707031zm0 0"/><path d="m430.078125 56.882812c0 9.132813-7.402344 16.535157-16.53125 16.535157-9.132813 0-16.535156-7.402344-16.535156-16.535157 0-9.132812 7.402343-16.535156 16.535156-16.535156 9.128906 0 16.53125 7.402344 16.53125 16.535156zm0 0" fill="#feda38"/><path d="m413.546875 80.242188c-12.882813 0-23.363281-10.480469-23.363281-23.359376 0-12.878906 10.480468-23.359374 23.363281-23.359374 12.878906 0 23.359375 10.480468 23.359375 23.359374 0 12.878907-10.480469 23.359376-23.359375 23.359376zm0-33.066407c-5.355469 0-9.707031 4.351563-9.707031 9.707031 0 5.355469 4.351562 9.707032 9.707031 9.707032 5.351563 0 9.707031-4.351563 9.707031-9.707032 0-5.355468-4.355468-9.707031-9.707031-9.707031zm0 0"/><path d="m39.894531 56.882812c0 9.132813-7.402343 16.535157-16.535156 16.535157-9.128906 0-16.53125-7.402344-16.53125-16.535157 0-9.132812 7.402344-16.535156 16.53125-16.535156 9.132813 0 16.535156 7.402344 16.535156 16.535156zm0 0" fill="#feda38"/><path d="m23.359375 80.242188c-12.878906 0-23.359375-10.480469-23.359375-23.359376 0-12.878906 10.480469-23.359374 23.359375-23.359374 12.882813 0 23.363281 10.480468 23.363281 23.359374 0 12.878907-10.484375 23.359376-23.363281 23.359376zm0-33.066407c-5.351563 0-9.707031 4.351563-9.707031 9.707031 0 5.355469 4.355468 9.707032 9.707031 9.707032 5.355469 0 9.710937-4.351563 9.710937-9.707032 0-5.355468-4.355468-9.707031-9.710937-9.707031zm0 0"/></svg>