<?xml version="1.0" encoding="iso-8859-1"?>
<!-- Generator: Adobe Illustrator 19.0.0, SVG Export Plug-In . SVG Version: 6.00 Build 0)  -->
<svg version="1.1" id="Capa_1" xmlns="http://www.w3.org/2000/svg" xmlns:xlink="http://www.w3.org/1999/xlink" x="0px" y="0px"
	 viewBox="0 0 512 512" style="enable-background:new 0 0 512 512;" xml:space="preserve">
<path style="fill:#00E3FF;" d="M248.283,2.138L30,137l28.677,77.206L201,287l55-15l55,15l146-75l25-75L263.717,2.138
	C258.967-0.713,253.033-0.713,248.283,2.138z"/>
<polygon style="fill:#00BBFF;" points="256,272 226,309.5 226,479.5 256,512 467.273,385.837 482,359.693 482,137 "/>
<polygon style="fill:#00D0FF;" points="30,137 30,358.483 43.7,385.22 256,512 256,272 "/>
<path style="fill:#007BFF;" d="M15,91C6.709,91,0,84.291,0,76V15C0,6.709,6.709,0,15,0h61c8.291,0,15,6.709,15,15s-6.709,15-15,15
	H30v46C30,84.291,23.291,91,15,91z"/>
<path style="fill:#0050C7;" d="M497,91c-8.291,0-15-6.709-15-15V30h-45c-8.291,0-15-6.709-15-15s6.709-15,15-15h60
	c8.291,0,15,6.709,15,15v61C512,84.291,505.291,91,497,91z"/>
<path style="fill:#007BFF;" d="M76,512H15c-8.291,0-15-6.709-15-15v-60c0-8.291,6.709-15,15-15s15,6.709,15,15v45h46
	c8.291,0,15,6.709,15,15S84.291,512,76,512z"/>
<path style="fill:#0050C7;" d="M497,512h-60c-8.291,0-15-6.709-15-15s6.709-15,15-15h45v-45c0-8.291,6.709-15,15-15s15,6.709,15,15
	v60C512,505.291,505.291,512,497,512z"/>
<path style="fill:#00D0FF;" d="M482,359.693l-67.5-38.969c-7.192-4.146-16.333-1.685-20.493,5.493
	c-4.146,7.178-1.685,16.348,5.493,20.493l67.773,39.126L482,377V359.693z"/>
<path style="fill:#00E3FF;" d="M116.898,326.218c-4.16-7.178-13.301-9.639-20.493-5.493L30,358.483V377l13.7,8.22l67.705-38.509
	C118.583,342.565,121.044,333.395,116.898,326.218z"/>
<g>
</g>
<g>
</g>
<g>
</g>
<g>
</g>
<g>
</g>
<g>
</g>
<g>
</g>
<g>
</g>
<g>
</g>
<g>
</g>
<g>
</g>
<g>
</g>
<g>
</g>
<g>
</g>
<g>
</g>
</svg>
