<?xml version="1.0" encoding="iso-8859-1"?>
<!-- Generator: Adobe Illustrator 19.0.0, SVG Export Plug-In . SVG Version: 6.00 Build 0)  -->
<svg version="1.1" id="Capa_1" xmlns="http://www.w3.org/2000/svg" xmlns:xlink="http://www.w3.org/1999/xlink" x="0px" y="0px"
	 viewBox="0 0 512.002 512.002" style="enable-background:new 0 0 512.002 512.002;" xml:space="preserve">
<g>
	<g>
		<path d="M422.286,195.543c-3.906-3.904-10.238-3.904-14.143,0c-3.905,3.906-3.905,10.238,0,14.143
			c0.154,0.154,0.314,0.311,0.469,0.455c1.93,1.807,4.385,2.701,6.835,2.701c2.668,0,5.332-1.063,7.3-3.164
			C426.523,205.649,426.316,199.319,422.286,195.543z"/>
	</g>
</g>
<g>
	<g>
		<path d="M401.969,179.119c-5.724-3.887-11.601-7.354-17.467-10.307c-33.186-16.699-68.353-20.051-101.701-9.695
			c-5.274,1.639-8.223,7.242-6.584,12.516c1.638,5.275,7.239,8.221,12.516,6.584c28.304-8.791,58.311-5.865,86.777,8.459
			c5.021,2.529,10.286,5.639,15.226,8.99c1.721,1.168,3.674,1.729,5.607,1.729c3.202,0,6.349-1.535,8.283-4.385
			C407.728,188.441,406.538,182.221,401.969,179.119z"/>
	</g>
</g>
<g>
	<g>
		<path d="M492.946,308.529c-4.1-8.6-10.889-22.842-11.011-27.553c11.694-28.824,7.428-60.721-12.05-89.898
			c-29.953-44.873-91.343-77.443-145.97-77.443c-28.876,0-57.073,6.886-82.441,20.031c-7.278-39.877-42.25-70.208-84.196-70.208
			c-47.206,0-85.61,38.404-85.61,85.609c0,30.033,15.306,57.34,40.94,73.045c7.39,4.528,9.062,8.442,9.656,14.855v34.143v24.373
			c0,11.166,9.082,20.25,20.245,20.25h3.4c5.493,43.776,26.679,83.521,60.309,112.768c0.317,0.988,1.242,5.619-2.732,19.436
			c-3.095,10.764-7.845,22.721-12.034,33.271c-2.804,7.059-5.226,13.156-6.69,17.766c-0.965,3.039-0.423,6.357,1.46,8.932
			c1.884,2.574,4.882,4.096,8.071,4.096h142.745c4.69,0,11.132-2.1,15.187-12.105c1.765-4.354,2.917-9.592,4.138-15.139
			c1.188-5.404,3.974-18.061,6.744-19.59c0.002,0,0.164-0.027,0.555,0.033c0.513,0.082,1.032,0.121,1.552,0.121
			c14.949,0,27.164,0.678,37.941,1.275c31.609,1.754,50.689,2.813,67.426-21.295c8.512-12.262,7.547-30.145,6.526-49.078
			c-0.526-9.758-1.069-19.83-0.105-28.203c1.745-1.719,6.115-4.719,8.855-6.6c9.427-6.475,18.33-12.588,18.33-21.883
			C504.19,332.473,499.917,323.152,492.946,308.529z M123.058,205.056c-19.655-12.04-31.389-32.97-31.389-55.99
			c0-36.178,29.433-65.609,65.61-65.609c36.178,0,65.61,29.432,65.61,65.609c0,23.02-11.733,43.951-31.389,55.992
			c-9.341,5.725-14.893,12.402-17.528,21.424l-16.696-0.006l-16.688,0.006C137.951,217.461,132.4,210.783,123.058,205.056z
			 M172.294,246.484v14.625h-30.028v-14.625H172.294z M142.511,295.732c-0.111,0-0.245-0.138-0.245-0.25v-14.373h30.028v14.373
			c0,0.113-0.135,0.25-0.248,0.25H142.511z M474.538,344.932c-8.607,5.912-16.041,11.016-17.137,18.74
			c-1.506,10.596-0.874,22.305-0.264,33.627c0.758,14.047,1.616,29.969-2.984,36.596c-9.95,14.334-18.556,14.473-49.889,12.732
			c-10.338-0.574-23.166-1.285-38.375-1.307c-5.841-0.688-15.724,0.408-22.319,13.229c-3.35,6.51-5.15,14.691-6.738,21.908
			c-0.798,3.627-1.919,8.723-2.969,11.543H208.689c0.438-1.105,0.89-2.244,1.354-3.412c14.406-36.273,23.53-62.877,9.642-74.883
			c-29.436-25.459-48.208-59.933-53.591-97.973h5.953c11.165,0,20.248-9.084,20.248-20.25v-24.373v-34.123
			c0.593-6.425,2.26-10.342,9.656-14.875c23.671-14.502,38.523-38.899,40.661-66.198c24.544-14.585,52.54-22.279,81.304-22.279
			c47.648,0,103.251,29.469,129.336,68.547c11.18,16.748,21.979,42.803,9.931,71.813c-3.924,9.447,1.894,22.549,11.71,43.141
			c3.178,6.666,7.778,16.316,8.996,20.824C481.823,339.93,477.381,342.98,474.538,344.932z"/>
	</g>
</g>
<g>
	<g>
		<path d="M206.331,134.937c-2.953-10.945-10.294-19.711-21.231-25.354c-4.908-2.529-10.939-0.605-13.472,4.305
			c-2.531,4.909-0.605,10.94,4.304,13.471c5.971,3.08,9.599,7.264,11.089,12.787c2.359,8.744-1.209,18.205-2.775,20.662
			c-2.969,4.658-1.6,10.84,3.057,13.809c1.666,1.063,3.527,1.568,5.366,1.568c3.303,0,6.535-1.633,8.441-4.625
			C205.376,164.871,210.286,149.595,206.331,134.937z"/>
	</g>
</g>
<g>
	<g>
		<path d="M157.279,0c-5.523,0-10,4.479-10,10v28.508c0,5.521,4.477,10,10,10c5.522,0,10-4.479,10-10V10
			C167.279,4.479,162.801,0,157.279,0z"/>
	</g>
</g>
<g>
	<g>
		<path d="M46.323,139.465H17.815c-5.523,0-10,4.479-10,10c0,5.523,4.477,10,10,10h28.509c5.522,0,9.999-4.477,9.999-10
			C56.323,143.944,51.845,139.465,46.323,139.465z"/>
	</g>
</g>
<g>
	<g>
		<path d="M110.457,48.363l-14.25-24.678c-2.762-4.783-8.879-6.42-13.661-3.66c-4.782,2.762-6.421,8.877-3.659,13.66l14.25,24.678
			c1.853,3.209,5.213,5.002,8.669,5.002c1.697,0,3.417-0.432,4.991-1.342C111.58,59.261,113.219,53.146,110.457,48.363z"/>
	</g>
</g>
<g>
	<g>
		<path d="M66.178,85.325l-24.681-14.25c-4.782-2.76-10.899-1.121-13.66,3.66c-2.762,4.783-1.123,10.898,3.66,13.66l24.681,14.25
			c1.574,0.91,3.294,1.342,4.99,1.342c3.456,0,6.817-1.793,8.67-5.002C72.6,94.204,70.961,88.087,66.178,85.325z"/>
	</g>
</g>
<g>
	<g>
		<path d="M286.725,74.734c-2.763-4.783-8.878-6.422-13.66-3.66l-24.681,14.25c-4.783,2.762-6.422,8.879-3.66,13.66
			c1.852,3.209,5.213,5.002,8.669,5.002c1.696,0,3.416-0.432,4.991-1.342l24.681-14.25
			C287.848,85.632,289.487,79.517,286.725,74.734z"/>
	</g>
</g>
<g>
	<g>
		<path d="M69.843,199.947c-2.76-4.783-8.874-6.42-13.658-3.662l-24.687,14.25c-4.783,2.76-6.423,8.877-3.662,13.66
			c1.852,3.209,5.214,5.002,8.67,5.002c1.696,0,3.415-0.432,4.99-1.34l24.686-14.25C70.965,210.847,72.605,204.73,69.843,199.947z"
			/>
	</g>
</g>
<g>
	<g>
		<path d="M104.74,240.467c-4.781-2.76-10.898-1.121-13.66,3.66L78.886,265.25c-2.761,4.783-1.122,10.9,3.661,13.66
			c1.575,0.91,3.294,1.342,4.99,1.342c3.456,0,6.818-1.793,8.67-5.002l12.194-21.123
			C111.163,249.344,109.524,243.229,104.74,240.467z"/>
	</g>
</g>
<g>
	<g>
		<path d="M232.015,20.025c-4.784-2.762-10.898-1.123-13.66,3.66l-14.25,24.678c-2.762,4.783-1.124,10.899,3.659,13.66
			c1.575,0.91,3.295,1.342,4.991,1.342c3.456,0,6.817-1.793,8.67-5.002l14.25-24.678C238.437,28.902,236.798,22.787,232.015,20.025z
			"/>
	</g>
</g>
<g>
</g>
<g>
</g>
<g>
</g>
<g>
</g>
<g>
</g>
<g>
</g>
<g>
</g>
<g>
</g>
<g>
</g>
<g>
</g>
<g>
</g>
<g>
</g>
<g>
</g>
<g>
</g>
<g>
</g>
</svg>
