<svg id="Capa_1" enable-background="new 0 0 512 512" height="512" viewBox="0 0 512 512" width="512" xmlns="http://www.w3.org/2000/svg"><g><path d="m421.178 191.734c0-105.892-85.842-191.734-191.734-191.734l-20 162.063 20 349.937h95.81v-95.602h95.925v-77.897h53.112z" fill="#99f"/><path d="m37.709 191.734c0 56.852 24.752 107.915 64.057 143.026v177.24h127.677v-512c-105.891 0-191.734 85.842-191.734 191.734z" fill="#ccd5ff"/><path d="m209.444 171.734 20 148.022 110.87-64.011v-128.021z" fill="#e62e6b"/><path d="m340.314 127.724-110.87-64.011-20 64.011 20 64.01z" fill="#f69"/><path d="m118.574 127.724v128.021l110.87 64.011v-128.022l-46.301-46.732z" fill="#f69"/><path d="m229.444 63.713-110.87 64.011 110.87 64.01z" fill="#f9b"/></g></svg>