<svg id="_x33_0" enable-background="new 0 0 64 64" height="512" viewBox="0 0 64 64" width="512" xmlns="http://www.w3.org/2000/svg"><g><g><g><path d="m60 48.5v4.5 7h-12v-6-6h12z" fill="#e6e9ed"/></g><g><path d="m18.18 40.03c2.83 3 6.62 5.08 10.88 5.74.96.15 1.94.23 2.94.23s1.98-.08 2.94-.23c4.26-.66 8.05-2.74 10.88-5.74 3.21-3.39 5.18-7.99 5.18-13.03 0-5.94-2.73-11.25-7-14.73h-.01c.01-.08.01-.17.01-.26 0-2.07-.62-3.99-1.7-5.58 7.53 3.78 12.7 11.57 12.7 20.57 0 11.57-8.55 21.15-19.68 22.75-1.08.17-2.19.25-3.32.25s-2.24-.08-3.32-.24c-3.98-.57-7.63-2.17-10.68-4.51v-4.25c0-.28-.11-.52-.29-.71l.38-.36c.03.04.06.07.09.1z" fill="#fcd770"/></g><g><path d="m44 12.27c4.27 3.48 7 8.79 7 14.73 0 5.04-1.97 9.64-5.18 13.03-.77-4.14-3.83-7.51-7.89-8.66-.62-.18-1.27-.3-1.93-.37l-.78-3.12c2.73-.57 4.78-2.99 4.78-5.88h1c.83 0 1.58-.34 2.12-.88s.88-1.29.88-2.12c0-.79-.3-1.5-.79-2.03l.6-3c.1-.56.17-1.13.18-1.7z" fill="#69d6f4"/></g><g><path d="m45.82 40.03c-2.83 3-6.62 5.08-10.88 5.74l-2-7.77 1.07-3.18 2.99 1.18.93-4.63c4.06 1.15 7.12 4.52 7.89 8.66z" fill="#ff826e"/></g><g><path d="m29 10h-1c-2.21 0-4 1.79-4 4v2h-1c-.87 0-1.66.37-2.21.97l-.67-3.36c-.08-.4-.12-.82-.12-1.23 0-.04 0-.07 0-.11.02-1.02.28-2 .74-2.87.49-.9 1.19-1.68 2.07-2.27l.19-.13c.21-.53.48-1.03.79-1.49.57-.85 1.3-1.58 2.14-2.14 1.29-.87 2.83-1.37 4.46-1.37h3.6c3.46 0 6.52 1.76 8.31 4.43 1.08 1.59 1.7 3.51 1.7 5.58 0 .09 0 .18-.01.26-.01.57-.08 1.14-.18 1.7l-.6 3c-.55-.6-1.34-.97-2.21-.97h-1v-2c0-1.1-.9-2-2-2h-5c-1.63 0-3.09-.79-4-2z" fill="#656d78"/></g><g><path d="m43.21 16.97c.49.53.79 1.24.79 2.03 0 .83-.34 1.58-.88 2.12s-1.29.88-2.12.88h-1v-6h1c.87 0 1.66.37 2.21.97z" fill="#f0d0b4"/></g><g><path d="m40 16v6c0 2.89-2.05 5.31-4.78 5.88-.39.08-.8.12-1.22.12h-4c-.42 0-.83-.04-1.22-.12-2.73-.57-4.78-2.99-4.78-5.88v-6-2c0-2.21 1.79-4 4-4h1c.91 1.21 2.37 2 4 2h5c1.1 0 2 .9 2 2z" fill="#f0d0b4"/></g><g><path d="m37.93 31.37-.93 4.63-2.99-1.18-2.07-.82 4.06-3c.66.07 1.31.19 1.93.37z" fill="#fc6e51"/></g><g><path d="m36 54v6c0 1.1-.9 2-2 2h-4c-1.1 0-2-.9-2-2v-6z" fill="#cf9e76"/></g><g><path d="m36 52v2h-8v-2c0-.83.25-1.6.68-2.24 1.08.16 2.19.24 3.32.24s2.24-.08 3.32-.25v.01c.43.64.68 1.41.68 2.24z" fill="#ccd1d9"/></g><g><path d="m35.22 27.88.78 3.12-4.06 3-3.94-3 .78-3.12c.39.08.8.12 1.22.12h4c.42 0 .83-.04 1.22-.12z" fill="#f0d0b4"/></g><g><path d="m32.94 38 2 7.77c-.96.15-1.94.23-2.94.23s-1.98-.08-2.94-.23l1.88-7.77z" fill="#e6e9ed"/></g><g><path d="m34.01 34.82-1.07 3.18h-2l-1.05-3.17 2.05-.83z" fill="#ccd1d9"/></g><g><path d="m31.94 34-2.05.83-2.89 1.17-.93-4.63c.62-.18 1.27-.3 1.93-.37z" fill="#fc6e51"/></g><g><path d="m29.89 34.83 1.05 3.17-1.88 7.77c-4.26-.66-8.05-2.74-10.88-5.74.77-4.14 3.83-7.51 7.89-8.66l.93 4.63z" fill="#ff826e"/></g><g><path d="m28.78 27.88-.78 3.12c-.66.07-1.31.19-1.93.37-4.06 1.15-7.12 4.52-7.89 8.66-.03-.03-.06-.06-.09-.1-3.16-3.38-5.09-7.94-5.09-12.93 0-5.94 2.73-11.25 7-14.73v.11c0 .41.04.83.12 1.23l.67 3.36c-.49.53-.79 1.24-.79 2.03 0 .83.34 1.58.88 2.12s1.29.88 2.12.88h1c0 2.89 2.05 5.31 4.78 5.88z" fill="#69d6f4"/></g><g><path d="m24 16v6h-1c-.83 0-1.58-.34-2.12-.88s-.88-1.29-.88-2.12c0-.79.3-1.5.79-2.03.55-.6 1.34-.97 2.21-.97z" fill="#f0d0b4"/></g><g><path d="m23.79 5.51c-.31.46-.58.96-.79 1.49l-.19.13c-.88.59-1.58 1.37-2.07 2.27-.46.87-.72 1.85-.74 2.87-4.27 3.48-7 8.79-7 14.73 0 4.99 1.93 9.55 5.09 12.93l-.38.36c-.19-.18-.43-.29-.71-.29h-3.98c-2.53-3.7-4.02-8.18-4.02-13 0-9.81 6.14-18.19 14.79-21.49z" fill="#fcd770"/></g><g><path d="m18 54v5c0 .55-.45 1-1 1h-14c-.55 0-1-.45-1-1v-18c0-.55.45-1 1-1h10.02 3.98c.28 0 .52.11.71.29.18.19.29.43.29.71v4.25z" fill="#e6e9ed"/></g></g><g><circle cx="28" cy="16" r="1"/><circle cx="36" cy="16" r="1"/><path d="m33 23h-4v2h4c2.206 0 4-1.794 4-4h-2c0 1.103-.897 2-2 2z"/><path d="m31 15h2v4h-2z"/><path d="m5 43h2v2h-2z"/><path d="m9 43h6v2h-6z"/><path d="m5 47h10v2h-10z"/><path d="m5 51h10v2h-10z"/><path d="m51.707 52.293-1.414 1.414 3.79 3.79 8.698-10.872-1.562-1.25-7.302 9.128z"/><path d="m59 59h-10v-10h6v-2h-8v6h-10v-1c0-.507-.077-1.004-.223-1.479 10.952-2.221 19.223-11.923 19.223-23.521 0-9.056-4.991-17.209-13.035-21.346-1.997-2.811-5.271-4.654-8.974-4.654h-3.606c-2.922 0-5.562 1.406-7.219 3.688-9.08 3.6-15.166 12.524-15.166 22.312 0 4.251 1.106 8.362 3.212 12h-8.212c-1.103 0-2 .897-2 2v18c0 1.103.897 2 2 2h14c1.103 0 2-.897 2-2v-4h8v5c0 1.654 1.346 3 3 3h4c1.654 0 3-1.346 3-3v-5h10v6h14v-8h-2zm-24-7v1h-6v-1c0-.408.088-.805.245-1.174.909.103 1.826.174 2.755.174.933 0 1.853-.059 2.759-.163.154.366.241.758.241 1.163zm19-25c0 12.131-9.869 22-22 22-4.731 0-9.211-1.482-13-4.267v-2.565c3.5 3.004 8.037 4.832 13 4.832 11.028 0 20-8.972 20-20 0-5.878-2.553-11.387-7.01-15.198-.019-.997-.169-1.961-.437-2.877 5.894 4.078 9.447 10.756 9.447 18.075zm-31-6c-1.103 0-2-.897-2-2s.897-2 2-2zm-3.758-6.689.481 2.407c-.453.648-.723 1.433-.723 2.282 0 2.206 1.794 4 4 4h.08c.37 2.567 2.133 4.683 4.499 5.56l-.386 1.546c-4.349.699-7.98 3.736-9.467 7.817-2.327-3.034-3.726-6.814-3.726-10.923 0-4.801 1.894-9.328 5.242-12.689zm21.758 2.689c1.103 0 2 .897 2 2s-.897 2-2 2zm-.08 6h.08c2.206 0 4-1.794 4-4 0-.849-.27-1.634-.724-2.283l.481-2.407c3.349 3.362 5.243 7.888 5.243 12.69 0 4.109-1.399 7.889-3.726 10.922-1.487-4.08-5.118-7.118-9.467-7.817l-.386-1.546c2.366-.876 4.129-2.992 4.499-5.559zm-10.92 6h4c.156 0 .31-.013.463-.023l.404 1.617-2.915 2.156-2.823-2.147.407-1.627c.154.011.308.024.464.024zm6.756 3.119-.502 2.51-2.267-.897 2.279-1.686c.164.024.329.043.49.073zm-4.533 4.881h-.558l-.531-1.593.815-.33.809.32zm-2.283-3.268-2.196.889-.5-2.501c.159-.03.321-.049.482-.071zm-4.621-1.038.937 4.685 3.02-1.221.629 1.885-1.597 6.572c-3.483-.729-6.601-2.466-9.029-4.894.759-3.208 3.056-5.811 6.04-7.027zm6.411 6.306h.438l1.52 5.914c-.556.053-1.118.086-1.688.086-.576 0-1.144-.033-1.707-.086zm3.948 5.62-1.692-6.583.634-1.903 3.125 1.237.935-4.677c2.984 1.216 5.281 3.819 6.041 7.028-2.431 2.432-5.553 4.17-9.043 4.898zm3.322-22.62c0 2.757-2.243 5-5 5h-4c-2.757 0-5-2.243-5-5v-8c0-1.654 1.346-3 3-3h.532c1.099 1.227 2.695 2 4.468 2h5c.551 0 1 .449 1 1zm-8.615-19h3.606c4.967 0 9.009 4.042 9.009 9.009 0 .593-.059 1.187-.175 1.767l-.306 1.528c-.469-.194-.981-.304-1.519-.304v-1c0-1.654-1.346-3-3-3h-5c-2.206 0-4-1.794-4-4h-2c0 .716.126 1.404.357 2.041-2.454.316-4.357 2.42-4.357 4.959v1c-.538 0-1.05.11-1.52.304l-.377-1.888c-.068-.342-.103-.692-.103-1.041 0-1.779.883-3.43 2.363-4.416l.45-.3.116-.289c1.062-2.654 3.596-4.37 6.456-4.37zm-20.385 24c0-7.534 3.938-14.504 10.127-18.503-.616.981-.994 2.101-1.09 3.282-4.474 3.813-7.037 9.331-7.037 15.221 0 4.505 1.515 8.653 4.038 12h-2.465c-2.331-3.572-3.573-7.706-3.573-12zm-7 32v-18h14l.001 18zm16-6v-5.821c2.526 1.635 5.306 2.744 8.228 3.331-.149.478-.228.979-.228 1.49v1zm16 7c0 .551-.449 1-1 1h-4c-.551 0-1-.449-1-1v-5h6z"/><path d="m5 55h10v2h-10z"/></g></g></svg>