<svg id="Layer_1" enable-background="new 0 0 128 128" height="512" viewBox="0 0 128 128" width="512" xmlns="http://www.w3.org/2000/svg"><g><path d="m113.568 95.719c.889-.505 1.605-1.261 2.046-2.206.562-1.204.62-2.554.166-3.801l-.653-1.794c8.715-7.208 12.421-19.392 8.337-30.611-4.427-12.162-16.593-19.307-28.922-17.917v-18.065c0-2.757-2.243-5-5-5h-14.063c-.616-2.064-2.509-3.583-4.771-3.583h-10.765c-1.033-4.475-5.073-7.75-9.734-7.75s-8.701 3.275-9.734 7.75h-10.766c-2.261 0-4.155 1.519-4.771 3.583h-14.062c-2.757 0-5 2.243-5 5v99.333c0 2.757 2.243 5 5 5h78.667c2.757 0 5-2.243 5-5v-26.642c1.028.118 2.063.197 3.107.197.064 0 .129-.008.194-.008l.654 1.796c.454 1.248 1.366 2.244 2.569 2.805.669.312 1.382.469 2.098.469.298 0 .596-.03.892-.085l6.078 21.82c.509 1.828 1.77 3.375 3.457 4.243.975.501 2.051.755 3.129.755.789 0 1.58-.137 2.334-.411 1.783-.648 3.229-2.024 3.964-3.773.735-1.751.707-3.746-.079-5.476z" fill="#e6e7e8"/><g><g><g><path d="m85.542 120.658h-78.666c-2.209 0-4-1.791-4-4v-99.333c0-2.209 1.791-4 4-4h78.667c2.209 0 4 1.791 4 4v99.333c-.001 2.209-1.791 4-4.001 4z" fill="#6dc9f7"/><path d="m80.542 113.658h-68.666c-1.105 0-2-.895-2-2v-89.333c0-1.105.895-2 2-2h68.667c1.104 0 2 .895 2 2v89.333c-.001 1.105-.896 2-2.001 2z" fill="#d4fbff"/><path d="m55.112 9.741c-.61-4.377-4.358-7.75-8.903-7.75s-8.293 3.373-8.903 7.75h-11.597c-2.209 0-4 1.791-4 4v8.5c0 1.105.896 2 2 2h45c1.105 0 2-.895 2-2v-8.5c0-2.209-1.791-4-4-4z" fill="#0089ef"/><g fill="#fff"><path d="m68.709 21.241h-45c-1.104 0-2-.895-2-2v3c0 1.105.896 2 2 2h45c1.105 0 2-.895 2-2v-3c0 1.105-.895 2-2 2z"/><circle cx="46.209" cy="10.991" r="3"/></g></g><g><circle cx="46.209" cy="50.185" fill="#fa759e" r="18.517"/><g><path d="m33.013 63.166c3.359 3.414 8.028 5.536 13.196 5.536s9.837-2.122 13.196-5.536v-4.142c0-3.719-3.015-6.733-6.733-6.733h-12.926c-3.719 0-6.733 3.015-6.733 6.733z" fill="#d4fbff"/><g fill="#0089ef"><path d="m46.209 53.509c-1.225 0-2.385-.271-3.431-.747l2.005 5.138h2.853l2.004-5.138c-1.046.476-2.206.747-3.431.747z"/><path d="m46.209 68.702c.702 0 1.392-.046 2.074-.123l-.647-10.679h-2.853l-.648 10.68c.682.076 1.372.122 2.074.122z"/></g><path d="m54.5 45.254c0 4.559-3.712 8.255-8.291 8.255s-8.291-3.696-8.291-8.255 3.712-8.255 8.291-8.255 8.291 3.696 8.291 8.255z" fill="#fff"/></g></g></g><g><path d="m114.714 120.658c-3.195 1.163-6.703-.642-7.616-3.917l-6.349-22.79 7.495-2.728 9.785 21.539c1.408 3.096-.12 6.733-3.315 7.896z" fill="#fa759e"/><path d="m109.945 83.591c-2.139 1.671-4.569 3.044-7.258 4.023s-5.433 1.489-8.146 1.583l.897 2.463c.75 2.061 3.028 3.123 5.089 2.373l7.942-2.891c2.061-.75 3.123-3.028 2.373-5.089z" fill="#fa759e"/><circle cx="93.623" cy="62.712" fill="#ffd7e5" r="26.5"/><circle cx="93.623" cy="62.712" fill="#d4fbff" r="20.901"/><g fill="#3a2c60"><path d="m2.875 44.805c.552 0 1-.447 1-1v-9.979c0-.553-.448-1-1-1s-1 .447-1 1v9.979c0 .552.448 1 1 1z"/><path d="m46.209 14.991c2.206 0 4-1.794 4-4s-1.794-4-4-4-4 1.794-4 4 1.794 4 4 4zm0-6c1.103 0 2 .897 2 2s-.897 2-2 2-2-.897-2-2 .897-2 2-2z"/><path d="m46.209 69.702c10.762 0 19.518-8.755 19.518-19.517s-8.756-19.517-19.518-19.517-19.517 8.755-19.517 19.517 8.755 19.517 19.517 19.517zm-12.196-6.969v-3.709c0-3.161 2.572-5.733 5.733-5.733h1.873c1.356.771 2.92 1.219 4.59 1.219s3.234-.447 4.59-1.219h1.873c3.162 0 5.733 2.572 5.733 5.733v3.709c-3.157 3.069-7.456 4.968-12.196 4.968s-9.039-1.899-12.196-4.968zm12.196-10.223c-4.02 0-7.291-3.255-7.291-7.256 0-4 3.271-7.255 7.291-7.255s7.291 3.255 7.291 7.255c0 4.001-3.271 7.256-7.291 7.256zm0-19.841c9.659 0 17.517 7.858 17.517 17.517 0 3.817-1.241 7.341-3.321 10.222v-1.383c0-4.083-3.182-7.427-7.194-7.706 1.421-1.626 2.289-3.744 2.289-6.064 0-5.104-4.167-9.255-9.291-9.255s-9.291 4.151-9.291 9.255c0 2.32.868 4.438 2.289 6.064-4.012.279-7.194 3.624-7.194 7.706v1.382c-2.08-2.88-3.321-6.405-3.321-10.221 0-9.659 7.858-17.517 17.517-17.517z"/><path d="m73.251 83.555h-36c-.552 0-1 .447-1 1s.448 1 1 1h36c.553 0 1-.447 1-1s-.447-1-1-1z"/><path d="m31.102 73.811-1.221 1.313c-.548-.721-1.407-1.195-2.38-1.195h-7.25c-1.654 0-3 1.346-3 3v7.25c0 1.654 1.346 3 3 3h7.25c1.654 0 3-1.346 3-3v-6.785l2.066-2.222c.376-.404.353-1.037-.051-1.413-.405-.374-1.037-.353-1.414.052zm-2.602 10.368c0 .552-.449 1-1 1h-7.25c-.551 0-1-.448-1-1v-7.25c0-.552.449-1 1-1h7.25c.458 0 .829.315.947.736l-4.352 4.68-2.353-2.606c-.369-.409-1.001-.443-1.412-.072-.41.37-.442 1.002-.072 1.412l3.083 3.417c.188.208.454.328.735.33h.007c.278 0 .543-.115.732-.319l3.684-3.962v4.634z"/><path d="m73.251 95.555h-36c-.552 0-1 .447-1 1s.448 1 1 1h36c.553 0 1-.447 1-1s-.447-1-1-1z"/><path d="m73.251 103.555h-36c-.552 0-1 .447-1 1s.448 1 1 1h36c.553 0 1-.447 1-1s-.447-1-1-1z"/><path d="m31.102 93.812-1.221 1.313c-.548-.721-1.406-1.194-2.38-1.194h-7.25c-1.654 0-3 1.346-3 3v7.25c0 1.654 1.346 3 3 3h7.25c1.654 0 3-1.346 3-3v-6.786l2.066-2.221c.376-.404.353-1.037-.051-1.413-.405-.376-1.037-.354-1.414.051zm-2.602 10.368c0 .552-.449 1-1 1h-7.25c-.551 0-1-.448-1-1v-7.25c0-.552.449-1 1-1h7.25c.458 0 .828.315.947.736l-4.352 4.679-2.353-2.606c-.369-.409-1.001-.442-1.412-.072-.41.37-.442 1.002-.072 1.412l3.083 3.417c.188.208.454.328.735.33h.007c.278 0 .543-.115.732-.319l3.684-3.961v4.634z"/><path d="m109.568 91.719c.889-.505 1.605-1.261 2.046-2.206.562-1.204.62-2.554.166-3.801l-.648-1.779c3.121-2.571 5.655-5.826 7.414-9.599 3.104-6.657 3.431-14.125.918-21.027-4.426-12.161-16.592-19.307-28.922-17.917v-18.065c0-2.757-2.243-5-5-5h-14.062c-.615-2.064-2.509-3.584-4.771-3.584h-10.766c-1.033-4.475-5.073-7.75-9.734-7.75s-8.701 3.275-9.734 7.75h-10.766c-2.262 0-4.156 1.52-4.771 3.584h-14.063c-2.757 0-5 2.243-5 5v11.75c0 .553.448 1 1 1s1-.447 1-1v-11.75c0-1.654 1.346-3 3-3h13.833v5h-8.833c-1.654 0-3 1.346-3 3v89.333c0 1.654 1.346 3 3 3h68.667c1.654 0 3-1.346 3-3v-23.377c1.612.637 3.288 1.105 5 1.431v26.946c0 1.654-1.346 3-3 3h-78.667c-1.654 0-3-1.346-3-3v-68.472c0-.553-.448-1-1-1s-1 .447-1 1v68.473c0 2.757 2.243 5 5 5h78.667c2.757 0 5-2.243 5-5v-26.643c1.028.118 2.064.197 3.108.197.064 0 .129-.008.193-.008l.654 1.797c.454 1.248 1.366 2.244 2.569 2.805.669.312 1.382.469 2.098.469.298 0 .596-.03.892-.085l6.078 21.819c.509 1.828 1.77 3.376 3.458 4.244.974.501 2.05.755 3.128.755.789 0 1.58-.137 2.334-.411 1.784-.649 3.229-2.025 3.964-3.775s.706-3.745-.079-5.474zm8.018-37.729c2.329 6.4 2.027 13.325-.852 19.498-2.879 6.174-7.989 10.856-14.39 13.186-13.216 4.807-27.875-2.029-32.684-15.24-4.809-13.213 2.027-27.875 15.24-32.685 2.869-1.044 5.806-1.539 8.695-1.539 10.421 0 20.226 6.437 23.991 16.78zm-29.044-36.665v18.364c-1.449.273-2.894.661-4.324 1.181-.229.083-.451.177-.676.266v-14.811c0-1.654-1.346-3-3-3h-8.833v-5h13.833c1.654 0 3 1.346 3 3zm-65.833-3.584c0-1.654 1.346-3 3-3h11.597c.499 0 .921-.368.99-.862.548-3.927 3.95-6.888 7.913-6.888 3.964 0 7.366 2.961 7.913 6.888.069.494.491.862.99.862h11.597c1.654 0 3 1.346 3 3v8.5c0 .552-.448 1-1 1h-45c-.551 0-1-.448-1-1zm58.833 97.917c0 .552-.448 1-1 1h-68.667c-.551 0-1-.448-1-1v-89.333c0-.552.449-1 1-1h8.833v.916c0 1.654 1.346 3 3 3h45c1.654 0 3-1.346 3-3v-.916h8.833c.552 0 1 .448 1 1v15.683c-12.473 6.089-18.611 20.781-13.76 34.109.436 1.199.962 2.338 1.542 3.437h-32.073c-.552 0-1 .447-1 1s.448 1 1 1h33.235c2.761 4.304 6.615 7.673 11.056 9.845v24.259zm16.371-18.664c-.719-.335-1.265-.931-1.536-1.676l-.438-1.204c2.37-.2 4.751-.71 7.089-1.562 2.316-.843 4.471-1.978 6.436-3.357l.437 1.2c.271.746.236 1.553-.1 2.271-.335.719-.931 1.265-1.676 1.536l-7.941 2.891c-.747.271-1.552.236-2.271-.099zm19.263 24.054c-.527 1.256-1.523 2.204-2.804 2.671-1.283.465-2.653.38-3.864-.244-1.212-.623-2.08-1.689-2.446-3.002l-6.1-21.897 5.756-2.096 9.402 20.697c.564 1.24.583 2.615.056 3.871z"/><path d="m93.623 79.766c6.262 0 11.355-5.094 11.355-11.355v-3.993c0-.553-.447-1-1-1s-1 .447-1 1v3.993c0 5.158-4.197 9.355-9.355 9.355s-9.355-4.197-9.355-9.355v-11.397c0-5.158 4.197-9.355 9.355-9.355s9.355 4.197 9.355 9.355v4.221c0 .553.447 1 1 1s1-.447 1-1v-4.221c0-6.262-5.094-11.355-11.355-11.355s-11.355 5.094-11.355 11.355v11.396c0 6.262 5.093 11.356 11.355 11.356z"/><path d="m90.363 53.13c.423-.355.478-.986.122-1.409s-.986-.479-1.409-.122c-1.605 1.351-2.526 3.324-2.526 5.416v11.395c0 3.9 3.174 7.074 7.074 7.074 3.899 0 7.072-3.174 7.072-7.074 0-.553-.447-1-1-1s-1 .447-1 1c0 2.798-2.275 5.074-5.072 5.074-2.798 0-5.074-2.276-5.074-5.074v-11.395c0-1.5.661-2.916 1.813-3.885z"/><path d="m100.696 61.784c0-.553-.447-1-1-1s-1 .447-1 1v3.882c0 .553.447 1 1 1s1-.447 1-1z"/><path d="m100.696 57.015c0-3.9-3.173-7.074-7.072-7.074-.474 0-.951.048-1.419.143-.541.11-.891.638-.781 1.18.11.54.636.888 1.18.781.337-.068.68-.104 1.021-.104 2.797 0 5.072 2.276 5.072 5.074v1.629c0 .553.447 1 1 1s1-.447 1-1v-1.629z"/><path d="m90.832 68.409c0 1.539 1.253 2.792 2.792 2.792 1.538 0 2.79-1.253 2.79-2.792v-6.625c0-.553-.447-1-1-1s-1 .447-1 1v6.625c0 .437-.354.792-.79.792-.437 0-.792-.355-.792-.792v-.78c0-.553-.447-1-1-1s-1 .447-1 1z"/><path d="m95.414 60.242c.553 0 1-.447 1-1v-2.228c0-1.539-1.252-2.792-2.79-2.792-1.539 0-2.792 1.253-2.792 2.792v7.402c0 .553.447 1 1 1s1-.447 1-1v-7.402c0-.437.355-.792.792-.792.436 0 .79.355.79.792v2.228c0 .553.447 1 1 1z"/><path d="m73.773 53.456c-2.472 5.302-2.731 11.249-.73 16.746 2.001 5.498 6.022 9.887 11.324 12.359 2.945 1.373 6.088 2.063 9.243 2.063 2.526 0 5.06-.443 7.504-1.333 11.348-4.13 17.22-16.723 13.09-28.07-4.13-11.349-16.72-17.223-28.071-13.09-5.498 2.002-9.887 6.023-12.36 11.325zm13.043-9.445c2.239-.814 4.531-1.201 6.787-1.201 8.132 0 15.783 5.023 18.722 13.096 3.752 10.312-1.584 21.754-11.895 25.508-10.312 3.751-21.755-1.583-25.509-11.895-1.818-4.995-1.582-10.399.664-15.217 2.248-4.819 6.236-8.473 11.231-10.291z"/></g></g></g></g></svg>