<?xml version="1.0" encoding="UTF-8"?>
<svg xmlns="http://www.w3.org/2000/svg" xmlns:xlink="http://www.w3.org/1999/xlink" id="Gradient" viewBox="0 0 512 512" width="512" height="512"><defs><linearGradient id="linear-gradient" x1="255.979" y1="496" x2="255.979" y2="16" gradientUnits="userSpaceOnUse"><stop offset="0" stop-color="#12bee5"/><stop offset="0.5" stop-color="#c071e9"/><stop offset="1" stop-color="#f24f5a"/></linearGradient></defs><path d="M88,128H312a8,8,0,0,1,0,16H88a8,8,0,0,1,0-16Zm0,104V200a8,8,0,0,1,8-8h32a8,8,0,0,1,8,8v32a8,8,0,0,1-8,8H96A8,8,0,0,1,88,232Zm16-8h16V208H104ZM88,296V264a8,8,0,0,1,8-8h32a8,8,0,0,1,8,8v32a8,8,0,0,1-8,8H96A8,8,0,0,1,88,296Zm16-8h16V272H104ZM88,360V328a8,8,0,0,1,8-8h32a8,8,0,0,1,8,8v32a8,8,0,0,1-8,8H96A8,8,0,0,1,88,360Zm16-8h16V336H104Zm56,16H312a8,8,0,0,0,0-16H160a8,8,0,0,0,0,16Zm136,32H192a8,8,0,0,0,0,16H296a8,8,0,0,0,0-16Zm12.584-189.414,71.206-43.837a8,8,0,0,1,8.379-.006c25.259,15.5,54.016,33.167,71.251,43.782a8,8,0,0,1,3.771,7.545c-3.386,36.8-17.375,67.226-41.576,90.436a138.7,138.7,0,0,1-34.222,24.007,8,8,0,0,1-7.087-.006,138.2,138.2,0,0,1-34.064-23.985c-24.107-23.2-38.046-53.612-41.43-90.391A8,8,0,0,1,308.584,210.586Zm12.686,10.979c3.754,30.639,15.875,56,36.067,75.429a122.274,122.274,0,0,0,26.526,19.342,122.764,122.764,0,0,0,26.678-19.378c20.27-19.44,32.432-44.807,36.192-75.455-16.418-10.1-40.583-24.949-62.743-38.551ZM376,280a7.974,7.974,0,0,0,5.657-2.343l40-40a8,8,0,0,0-11.314-11.314L376,260.687l-10.343-10.344a8,8,0,0,0-11.314,11.314l16,16A7.974,7.974,0,0,0,376,280ZM16,472V72A24.027,24.027,0,0,1,40,48h65.376A24.039,24.039,0,0,1,128,32h25.371A24.042,24.042,0,0,1,176,16h48a24.042,24.042,0,0,1,22.629,16H272a24.039,24.039,0,0,1,22.624,16H360a24.028,24.028,0,0,1,24,24v56.024a8.058,8.058,0,0,1,4.194,1.164l103.958,64A8,8,0,0,1,495.958,200c0,69.013-29.63,110.893-54.485,133.874-26.985,24.948-53.861,33.423-54.992,33.771a8,8,0,0,1-2.359.357H384V472a24.027,24.027,0,0,1-24,24H40A24.027,24.027,0,0,1,16,472ZM288.043,204.443c.945,48.72,17.521,88.3,49.305,117.683a147.983,147.983,0,0,0,46.62,29.449,149.3,149.3,0,0,0,47.163-29.932c31.444-29.347,47.845-68.757,48.784-117.2l-95.936-59.062ZM296,80h48a8,8,0,0,1,8,8v58.28l16-9.85V72a8.009,8.009,0,0,0-8-8H296ZM120,96H280V56a8.009,8.009,0,0,0-8-8H240a8,8,0,0,1-8-8,8.009,8.009,0,0,0-8-8H176a8.009,8.009,0,0,0-8,8,8,8,0,0,1-8,8H128a8.009,8.009,0,0,0-8,8Zm-16,8V96H64V448H336V342.032c-3.142-2.5-6.327-5.211-9.515-8.158-2.141-1.98-4.32-4.111-6.51-6.378.01.168.025.334.025.5a8,8,0,0,1-8,8H160a8,8,0,0,1,0-16H312a8.093,8.093,0,0,1,1.264.109A163.488,163.488,0,0,1,301.133,304H160a8,8,0,0,1,0-16H291.8a169.98,169.98,0,0,1-7.134-16H160a8,8,0,0,1,0-16H279.359q-2.149-7.655-3.735-16H160a8,8,0,0,1,0-16H273.262q-.828-7.728-1.111-16H160a8,8,0,0,1,0-16H277.735l25.989-16H88a8,8,0,0,1,0-16H312a8,8,0,0,1,7.769,6.122L336,156.13V96H296v8a8,8,0,0,1-8,8H112A8,8,0,0,1,104,104ZM32,472a8.009,8.009,0,0,0,8,8H360a8.009,8.009,0,0,0,8-8V362.129a163.075,163.075,0,0,1-16-8.8V456a8,8,0,0,1-8,8H56a8,8,0,0,1-8-8V88a8,8,0,0,1,8-8h48V64H40a8.009,8.009,0,0,0-8,8Z" style="fill:url(#linear-gradient)"/></svg>
