<svg id="Capa_1" enable-background="new 0 0 511.989 511.989" height="512" viewBox="0 0 511.989 511.989" width="512" xmlns="http://www.w3.org/2000/svg"><g><g><path d="m51.321 458.106-20.45-20.45c-4.577-4.577-4.577-11.999 0-16.576l304.73-304.73 37.026 37.026-304.73 304.73c-4.577 4.578-11.998 4.578-16.576 0z" fill="#ffd15b"/><path d="m335.602 116.35 22.025 22.025-304.73 304.73c-4.577 4.577-11.999 4.577-16.576 0l15.001 15.001c4.577 4.577 11.999 4.577 16.576 0l304.73-304.73z" fill="#ffc344"/><path d="m304.355 220.09-35.467-35.467c-4.191-4.191-4.191-10.987 0-15.178l59.904-59.904 50.645 50.645-59.904 59.904c-4.191 4.191-10.987 4.191-15.178 0z" fill="#f4dbb3"/><g><path d="m379.434 160.189-59.9 59.9c-4.19 4.19-10.99 4.19-15.18 0l-15-15c4.19 4.19 10.99 4.19 15.18 0l59.9-59.9z" fill="#eac89f"/></g><path d="m147.616 445.144 15.838-15.838c4.668-4.668 12.237-4.668 16.906 0l10.49 10.49c4.668 4.668 12.237 4.668 16.906 0l11.742-11.742c4.668-4.668 4.668-12.237 0-16.906l-52.321-52.321-89.849 89.849 52.321 52.321c4.668 4.668 12.237 4.668 16.906 0l11.552-11.552c4.668-4.668 4.668-12.237 0-16.906l-10.49-10.49c-4.669-4.667-4.669-12.236-.001-16.905z" fill="#f4dbb3"/><path d="m219.494 428.059-11.74 11.74c-4.67 4.67-12.24 4.67-16.9 0l-10.49-10.49c-4.67-4.67-12.24-4.67-16.91 0l-15.84 15.84c-4.67 4.66-4.67 12.23 0 16.9l10.49 10.49c4.67 4.67 4.67 12.24 0 16.91l-11.55 11.55c-4.67 4.67-12.24 4.67-16.91 0l-11.07-11.07c3.67.6 7.55-.51 10.38-3.34l14.15-12.14c4.67-4.67 4.67-12.24 0-16.91l-10.49-10.49c-4.67-4.67-4.67-12.24 0-16.91l15.84-15.83c4.67-4.67 12.24-4.67 16.91 0l10.49 10.49c4.66 4.67 12.23 4.67 16.9 0l11.74-11.75c4.67-4.66 4.67-12.23 0-16.9l15 15c4.67 4.67 4.67 12.24 0 16.91z" fill="#eac89f"/><path d="m376.773 135.537c-12.886 0-23.333-10.446-23.333-23.333 0-12.886 10.446-23.333 23.333-23.333s23.333 10.446 23.333 23.333-10.446 23.333-23.333 23.333zm92.993-106.74c-23.574-27.239-64.824-28.351-89.84-3.334-.082.082-.163.164-.244.246-8.699 8.797-21.332 12.107-33.266 8.846-21.111-5.768-44.7-.057-60.894 17.141-21.546 22.882-22.155 59.014-1.336 82.56 13.19 14.918 31.744 21.788 49.888 20.649-1.14 18.154 5.738 36.717 20.671 49.908 23.187 20.482 58.637 20.265 81.589-.48 17.055-15.415 23.341-37.93 18.869-58.584-2.534-11.703 1.077-23.832 9.844-31.987 1.725-1.604 3.38-3.328 4.954-5.169 19.537-22.857 19.441-57.06-.235-79.796z" fill="#ffd15b"/><g fill="#ffc344"><path d="m469.766 28.797c-3.405-3.935-7.188-7.306-11.229-10.151 15.815 22.54 14.656 53.66-3.537 74.943-1.574 1.842-3.229 3.565-4.954 5.169-8.768 8.156-12.378 20.284-9.844 31.987 4.472 20.655-1.815 43.169-18.869 58.584-21.272 19.227-53.274 20.807-76.305 4.631 2.733 3.894 5.971 7.541 9.716 10.85 23.187 20.482 58.637 20.265 81.589-.48 17.055-15.415 23.341-37.93 18.869-58.584-2.534-11.703 1.077-23.832 9.844-31.987 1.725-1.604 3.38-3.328 4.954-5.169 19.538-22.854 19.442-57.057-.234-79.793z"/><path d="m354.577 119.4c-.734-2.267-1.136-4.684-1.136-7.196 0-12.886 10.446-23.333 23.333-23.333 2.512 0 4.929.402 7.196 1.136-3.034-9.364-11.822-16.137-22.197-16.137-12.886 0-23.333 10.446-23.333 23.333 0 10.375 6.773 19.164 16.137 22.197z"/></g></g><g><path d="m475.437 23.889c-12.706-14.681-30.339-23.15-49.65-23.846-19.042-.681-37.694 6.646-51.164 20.116l-.274.276c-6.711 6.787-16.658 9.424-25.957 6.884-18.017-4.922-37.508-2.271-53.477 7.274-3.555 2.125-4.714 6.731-2.589 10.286s6.73 4.713 10.286 2.589c12.481-7.462 27.726-9.532 41.826-5.68 14.514 3.964 30.062-.176 40.562-10.793l.229-.23c10.535-10.534 25.121-16.264 40.017-15.732 15.102.544 28.899 7.175 38.849 18.672 17.223 19.901 17.312 50 .205 70.012-1.367 1.6-2.834 3.131-4.362 4.551-10.697 9.951-15.208 24.555-12.065 39.065 4.072 18.808-2.276 38.516-16.568 51.434-19.268 18.056-52.114 18.263-71.595.423-12.585-11.118-19.201-27.088-18.15-43.817.373-4.37-3.583-8.329-7.956-7.956-16.711 1.057-32.683-5.559-43.8-18.131-14.152-16.006-17.398-38.979-8.27-58.525 1.753-3.753.131-8.216-3.622-9.969-3.753-1.752-8.215-.131-9.969 3.622-11.657 24.961-7.488 54.326 10.623 74.809 1.564 1.769 3.204 3.444 4.911 5.025l-19.897 19.897c-4.741 4.647-6.511 11.861-4.562 18.181l-233.448 233.45c-7.496 7.495-7.496 19.691 0 27.187l20.45 20.45c7.151 7.458 20.034 7.46 27.176 0l4.13-4.13 47.019 47.019c7.585 7.585 19.927 7.585 27.512 0l11.552-11.552c7.585-7.585 7.585-19.927 0-27.512l-10.49-10.49c-1.728-1.658-1.728-4.641 0-6.299l15.838-15.838c9.19-8.353 19.583 31.015 44.301 10.49l11.742-11.742c7.585-7.585 7.585-19.927 0-27.512l-47.018-47.018 107.194-107.193c2.929-2.929 2.929-7.678 0-10.606-2.929-2.929-7.678-2.929-10.606 0l-211.786 211.781c-1.569 1.637-4.388 1.63-5.958-.006 0 0-20.45-20.45-20.45-20.45-1.64-1.575-1.64-4.399 0-5.974l231.933-231.931 30.942 30.942c6.785 7.072 19.002 7.072 25.787 0l19.892-19.892c24.145 27.333 70.094 29.365 96.634 4.396 18.263-16.507 26.375-41.696 21.17-65.736-2.011-9.287.838-18.598 7.622-24.908 1.944-1.808 3.811-3.755 5.548-5.788 21.884-25.603 21.77-64.111-.267-89.575zm-259.939 395.712c.708 2.846-11.654 12.866-13.046 14.892-1.658 1.728-4.642 1.728-6.3 0l-10.49-10.49c-7.584-7.584-19.926-7.585-27.512 0l-15.838 15.838c-7.585 7.585-7.585 19.927 0 27.512l10.49 10.49c1.728 1.658 1.728 4.641 0 6.299l-11.552 11.552c-1.658 1.728-4.641 1.728-6.299 0l-47.018-47.018 79.242-79.242 47.018 47.018c.842.841 1.305 1.96 1.305 3.149zm98.732-204.816c-1.81 1.342-2.764 1.343-4.574 0l-35.47-35.47c-1.271-1.618-1.372-2.84 0-4.563l21.493-21.494c9.353 5.438 19.881 8.612 30.862 9.177.565 10.981 3.739 21.509 9.177 30.861z"/><path d="m436.172 52.806c-2.929-2.929-7.678-2.929-10.606 0l-32.956 32.956c-4.632-2.785-10.05-4.39-15.837-4.39-17.001 0-30.833 13.832-30.833 30.833s13.832 30.833 30.833 30.833 30.833-13.832 30.833-30.833c0-5.787-1.605-11.204-4.39-15.836l32.956-32.956c2.93-2.929 2.93-7.678 0-10.607zm-59.399 75.231c-8.73 0-15.833-7.103-15.833-15.833s7.103-15.833 15.833-15.833 15.833 7.103 15.833 15.833c0 8.731-7.103 15.833-15.833 15.833z"/><path d="m74.674 212.474c1.352.337 23.851 9.501 24.564 8.776 3.029 0 5.881-1.848 7.016-4.848 1.466-3.875-.487-8.203-4.361-9.668l-21.912-8.289c-3.876-1.467-8.203.487-9.668 4.361-1.466 3.874.487 8.203 4.361 9.668z"/><path d="m124.546 177.399c2.896 2.965 7.644 3.019 10.606.126 2.964-2.894 3.02-7.643.126-10.606l-17.042-17.452c-2.895-2.964-7.643-3.021-10.606-.126-2.964 2.894-3.02 7.643-.126 10.606z"/><path d="m165.764 148.397c2.395 9.484 17.113 5.52 14.505-3.823l-6.065-23.014c-1.056-4.006-5.16-6.399-9.164-5.341-4.005 1.056-6.397 5.158-5.341 9.164z"/></g></g></svg>