<svg id="Layer_1" height="512" viewBox="0 0 512 512" width="512" xmlns="http://www.w3.org/2000/svg" data-name="Layer 1"><path d="m476.04 436.16a6 6 0 0 1 -.02 8.47l-31.39 31.39a6 6 0 0 1 -8.47.02l-89.18-88.61-63.46 79.28a10 10 0 0 1 -17.34-3.22l-88.56-278.34a6 6 0 0 1 7.53-7.53l278.34 88.56a10 10 0 0 1 3.22 17.34l-79.28 63.46z" fill="#978cac"/><path d="m289.18 443.49-82.403-258.99-21.627-6.88a6 6 0 0 0 -7.53 7.53l88.56 278.34a10 10 0 0 0 17.34 3.22l13.18-16.467a9.879 9.879 0 0 1 -7.52-6.753z" fill="#766f87"/><path d="m459.16 456.04-89.18-88.61-19.106 23.87 85.286 84.74a6 6 0 0 0 8.47-.02l18.284-18.284a5.925 5.925 0 0 1 -3.754-1.696z" fill="#766f87"/><g fill="#284268"><path d="m264.053 129.834a5.978 5.978 0 0 0 4.243-1.757l32.937-32.937a6 6 0 1 0 -8.485-8.486l-32.937 32.938a6 6 0 0 0 4.242 10.242z"/><path d="m203.624 92.7a6.1 6.1 0 0 0 .859.062 6 6 0 0 0 5.931-5.15l7.534-52.535a6 6 0 1 0 -11.878-1.7l-7.534 52.535a6 6 0 0 0 5.088 6.788z"/><path d="m128.077 259.811a6 6 0 0 0 -8.485 0l-32.938 32.937a6 6 0 1 0 8.486 8.485l32.937-32.933a6 6 0 0 0 0-8.489z"/><path d="m92.7 203.624a6 6 0 0 0 -6.791-5.088l-52.539 7.534a6 6 0 0 0 .844 11.94 6.115 6.115 0 0 0 .859-.061l52.536-7.534a6 6 0 0 0 5.091-6.791z"/><path d="m125.548 134.377a6 6 0 0 0 8.486-8.485l-37.477-37.476a6 6 0 0 0 -8.485 8.484z"/><path d="m255.891 325.2-1.53-4.8a6 6 0 0 0 -11.434 3.643l1.53 4.8a6 6 0 0 0 11.434-3.644z"/><path d="m272.958 418.271a6 6 0 1 0 11.433-3.644l-21.512-67.5a6 6 0 1 0 -11.433 3.643z"/><path d="m396.394 347.491 73.748-59.036a16.393 16.393 0 0 0 6.2-14.673 15.954 15.954 0 0 0 -11-13.319l-106.522-33.9a6 6 0 0 0 -3.64 11.437l106.52 33.9a4 4 0 0 1 1.266 6.935l-79.282 63.465a6 6 0 0 0 -.51 8.913l88.605 89.175-31.394 31.394-89.175-88.609a6 6 0 0 0 -4.229-1.743c-.113 0-.227 0-.341.009a6 6 0 0 0 -4.343 2.241l-63.464 79.281a4 4 0 0 1 -6.935-1.287l-88.534-278.338 129.817 41.3a6 6 0 0 0 7.819-5.721 6 6 0 0 0 -4.181-5.718l-129.819-41.297a12.01 12.01 0 0 0 -15.095 15.073l88.559 278.338a16 16 0 0 0 27.736 5.149l59.289-74.066 84.436 83.9a12.022 12.022 0 0 0 16.943-.028l31.394-31.394a12 12 0 0 0 .027-16.943z"/></g></svg>