<svg height="512pt" viewBox="-40 0 512 512.00025" width="512pt" xmlns="http://www.w3.org/2000/svg"><path d="m320 200-.710938-.460938-.289062.460938v124l-.328125-.210938-102.671875 64.382813v113.828125c5.808594-3.382812 200.191406-116.617188 206-120 0-6.941406 0-239.0625 0-246zm0 0" fill="#ff5284"/><path d="m216.148438 132.871094-103.148438 63.128906v127.589844l103 64.582031 102.671875-64.382813.328125-.199218v-123.589844l.289062-.460938zm0 0" fill="#fff"/><path d="m216.148438 132.871094-103.148438 63.128906v127.589844l103-64.589844 102.671875 64.789062.328125-.199218v-123.589844l.289062-.460938zm0 0" fill="#425072"/><path d="m216 10c-7.199219 4.402344-194.746094 119.117188-206 126l103 60 103.148438-63.128906 103.140624 66.667968.710938.460938 102-64c-10.058594-6.152344-196.871094-120.417969-206-126zm0 0" fill="#ffe35c"/><path d="m113 323.589844v-127.589844l-103-60v246c5.808594 3.382812 200.191406 116.617188 206 120v-113.828125zm0 0" fill="#a0e4f8"/><path d="m216 206c-5.519531 0-10 4.480469-10 10s4.480469 10 10 10 10-4.480469 10-10-4.480469-10-10-10zm0 0"/><path d="m432 382v-246c0-.058594-.011719-.117188-.011719-.179688-.058593-3.410156-1.839843-6.484374-4.640625-8.257812-.042968-.027344-.085937-.066406-.128906-.09375l-206-126c-3.203125-1.957031-7.234375-1.957031-10.4375 0l-205.941406 125.964844c-2.925782 1.757812-4.8007815 4.984375-4.8320315 8.464844 0 .035156-.0078125.066406-.0078125.101562v246c0 3.558594 1.890625 6.851562 4.964844 8.640625l206 120c1.488281.867187 3.253906 1.359375 5.035156 1.359375s3.554688-.496094 5.03125-1.359375l206-120c3.078125-1.789063 4.96875-5.082031 4.96875-8.640625zm-412-228.601562 83 48.347656v103.761718l-83-52.039062zm98.265625-71.894532 79.109375 51.136719-84.5 51.714844-83.367188-48.5625zm284.746094 54.605469-82.929688 52.035156-85.148437-55.039062 81.558594-49.914063zm-187.011719 240.257813-84.183594-52.78125 84.167969-52.773438 83.90625 52.949219zm5.335938-125.824219c-3.25-2.050781-7.390626-2.058594-10.648438-.015625l-87.6875 54.980468v-103.902343l83-50.796875v25.191406c0 5.523438 4.476562 10 10 10s10-4.476562 10-10v-24.855469l83 53.652344v101.070313zm-98.335938 91.121093 83 52.039063v90.898437l-83-48.347656zm103 52.039063 83-52.046875v94.597656l-83 48.347656zm103-187.542969 83-52.078125v99.386719l-83 52.046875zm-113-184.4375 81.332031 49.746094-81.03125 49.589844-79.105469-51.136719zm-196 255.351563 83 52.039062v95.488281l-83-48.347656zm309 147.527343v-95.476562l83-52.050781v99.179687zm0 0"/></svg>