<svg height="512" viewBox="0 0 256 256" width="512" xmlns="http://www.w3.org/2000/svg"><rect fill="#cecece" height="151.106" rx="13.665" width="219.26" x="18.37" y="26.926"/><path d="m28.37 164.368v-123.777a13.681 13.681 0 0 1 13.665-13.665h-10a13.681 13.681 0 0 0 -13.665 13.665v123.777a13.681 13.681 0 0 0 13.665 13.665h10a13.681 13.681 0 0 1 -13.665-13.665z" fill="#afafaf"/><path d="m227.63 164.368v-123.777a13.681 13.681 0 0 0 -13.665-13.665h10a13.681 13.681 0 0 1 13.665 13.665v123.777a13.681 13.681 0 0 1 -13.665 13.665h-10a13.681 13.681 0 0 0 13.665-13.665z" fill="#e2e2e2"/><rect fill="#63bce7" height="122.288" rx="5.256" width="202.442" x="26.779" y="35.335"/><path d="m36.779 152.368v-111.777a5.271 5.271 0 0 1 5.256-5.256h-10a5.271 5.271 0 0 0 -5.256 5.256v111.777a5.271 5.271 0 0 0 5.256 5.256h10a5.271 5.271 0 0 1 -5.256-5.256z" fill="#6377e7"/><path d="m219.221 152.368v-111.777a5.271 5.271 0 0 0 -5.256-5.256h10a5.271 5.271 0 0 1 5.256 5.256v111.777a5.271 5.271 0 0 1 -5.256 5.256h-10a5.271 5.271 0 0 0 5.256-5.256z" fill="#63e2e7"/><circle cx="128" cy="149.872" fill="#9e9e9e" r="39.978"/><path d="m98.022 149.872a39.976 39.976 0 0 1 34.978-39.656 39.978 39.978 0 1 0 0 79.311 39.976 39.976 0 0 1 -34.978-39.655z" fill="#707070"/><path d="m109.249 189.849h37.5a44.65 44.65 0 0 1 44.651 44.651 0 0 0 0 1 0 0h-126.8a0 0 0 0 1 0 0 44.65 44.65 0 0 1 44.649-44.651z" fill="#f8af23"/><path d="m119.249 189.849h-10a44.649 44.649 0 0 0 -44.649 44.651h10a44.649 44.649 0 0 1 44.649-44.651z" fill="#f87023"/><rect fill="#f46275" height="85.951" rx="10" width="155" x="50.5" y="10.528"/><path d="m60.5 86.479v-65.951a10 10 0 0 1 10-10h-10a10 10 0 0 0 -10 10v65.951a10 10 0 0 0 10 10h10a10 10 0 0 1 -10-10z" fill="#f43075"/><path d="m195.5 86.479v-65.951a10 10 0 0 0 -10-10h10a10 10 0 0 1 10 10v65.951a10 10 0 0 1 -10 10h-10a10 10 0 0 0 10-10z" fill="#f48875"/><g fill="#3f3679"><path d="m77.255 25.606h7.857v7.857h-7.857z"/><path d="m91.062 25.606h69.359v7.857h-69.359z"/><path d="m166.229 25.606h12.517v7.857h-12.517z"/><path d="m77.255 41.585h7.857v7.857h-7.857z"/><path d="m91.062 41.585h55.413v7.857h-55.413z"/><path d="m152.396 41.585h26.35v7.857h-26.35z"/><path d="m77.255 57.565h7.857v7.857h-7.857z"/><path d="m91.062 57.565h27.707v7.857h-27.707z"/><path d="m129.991 57.565h48.754v7.857h-48.754z"/><path d="m77.255 73.544h7.857v7.857h-7.857z"/><path d="m91.062 73.544h16.201v7.857h-16.201z"/><path d="m113.062 73.544h65.683v7.857h-65.683z"/></g><path d="m221.871 115.617c-.208.58-.443 1.138-.7 1.691l5.2 5.2-10.224 10.222-5.2-5.2c-.553.257-1.116.493-1.691.7v7.355h-14.456v-7.355c-.575-.208-1.138-.443-1.691-.7l-5.2 5.2-10.219-10.223 5.2-5.2c-.257-.553-.493-1.111-.7-1.691h-7.355v-14.452h7.355c.208-.575.443-1.138.7-1.691l-5.2-5.2 10.223-10.223 5.2 5.2c.553-.257 1.116-.5 1.691-.706v-7.344h14.453v7.35c.575.208 1.138.449 1.691.706l5.2-5.2 10.222 10.218-5.2 5.2c.257.553.493 1.116.7 1.691h7.35v14.453z" fill="#f8af23"/><path d="m229.221 115.617v-14.453h-7.35c-.208-.575-.443-1.138-.7-1.691l5.2-5.2-10.224-10.222-5 5 5.22 5.22-5.2 5.2c.257.553.493 1.116.7 1.691h7.35v14.453h-7.35c-.208.58-.443 1.138-.7 1.691l5.2 5.2-5.223 5.223 5 5 10.223-10.223-5.2-5.2c.257-.553.493-1.111.7-1.691z" fill="#f8d323"/><circle cx="202.027" cy="108.391" fill="#9e9e9e" r="9.204"/><path d="m27.323 243.972h-18a1.5 1.5 0 1 0 0 3h18a1.5 1.5 0 1 0 0-3z" fill="#3f3679"/><path d="m246.68 243.972h-18a1.5 1.5 0 0 0 0 3h18a1.5 1.5 0 0 0 0-3z" fill="#3f3679"/><path d="m218.479 243.972h-180.958a1.5 1.5 0 0 0 0 3h180.958a1.5 1.5 0 0 0 0-3z" fill="#3f3679"/><path d="m9.32 236h237.36a1.5 1.5 0 0 0 0-3h-53.818a46.2 46.2 0 0 0 -46.111-44.65h-3.291a41.592 41.592 0 0 0 13.494-8.817h67.012a15.182 15.182 0 0 0 15.165-15.165v-123.777a15.182 15.182 0 0 0 -15.165-15.165h-16.966v-4.9a11.513 11.513 0 0 0 -11.5-11.5h-135a11.513 11.513 0 0 0 -11.5 11.502v4.9h-16.965a15.182 15.182 0 0 0 -15.165 15.163v123.777a15.182 15.182 0 0 0 15.165 15.165h67.012a41.592 41.592 0 0 0 13.494 8.817h-3.291a46.2 46.2 0 0 0 -46.112 44.65h-53.818a1.5 1.5 0 1 0 0 3zm214.645-207.574a12.179 12.179 0 0 1 12.165 12.165v123.777a12.178 12.178 0 0 1 -12.165 12.165h-64.224a41.366 41.366 0 0 0 8.683-17.409h55.541a6.764 6.764 0 0 0 6.756-6.756v-111.777a6.763 6.763 0 0 0 -6.756-6.755h-16.965v-5.41zm-137.443 121.446a41.626 41.626 0 0 0 .472 6.252h-54.959a3.76 3.76 0 0 1 -3.756-3.756v-111.777a3.76 3.76 0 0 1 3.756-3.755h16.965v49.643a11.513 11.513 0 0 0 11.5 11.5h118.7c.023 0 .044-.006.066-.007l1.691 1.691h-6.124a1.5 1.5 0 0 0 -1.5 1.5v14.455a1.5 1.5 0 0 0 1.5 1.5h6.124l-4.33 4.33a1.5 1.5 0 0 0 0 2.121l10.221 10.221a1.5 1.5 0 0 0 2.121 0l4.331-4.33v6.124a1.5 1.5 0 0 0 1.5 1.5h14.455a1.5 1.5 0 0 0 1.5-1.5v-6.124l4.33 4.33a1.5 1.5 0 0 0 2.121 0l10.221-10.221a1.48 1.48 0 0 0 .294-.442v29.24a3.76 3.76 0 0 1 -3.756 3.756h-54.959a41.479 41.479 0 1 0 -82.484-6.252zm120.478-113.037h16.965a3.76 3.76 0 0 1 3.756 3.755v53.065a1.48 1.48 0 0 0 -.294-.442l-10.221-10.222a1.544 1.544 0 0 0 -2.121 0l-4.33 4.33v-6.121a1.5 1.5 0 0 0 -1.5-1.5h-2.255zm20.721 85.056a1.48 1.48 0 0 0 -.294-.442l-4.33-4.33h4.624zm0-22.228h-4.621l4.33-4.331a1.481 1.481 0 0 0 .294-.443zm-19.966-16.963v5.851a1.5 1.5 0 0 0 .986 1.409c.51.186 1.023.4 1.569.655a1.5 1.5 0 0 0 1.695-.3l4.141-4.141 8.1 8.1-4.146 4.14a1.5 1.5 0 0 0 -.3 1.695c.256.549.47 1.062.654 1.568a1.5 1.5 0 0 0 1.41.987h5.851v11.455h-5.845a1.5 1.5 0 0 0 -1.41.987c-.185.507-.4 1.021-.654 1.568a1.5 1.5 0 0 0 .3 1.695l4.141 4.141-8.1 8.1-4.147-4.141a1.5 1.5 0 0 0 -1.695-.3c-.547.256-1.061.47-1.568.654a1.5 1.5 0 0 0 -.987 1.41v5.851h-11.45v-5.851a1.5 1.5 0 0 0 -.987-1.41c-.506-.184-1.019-.4-1.568-.654a1.5 1.5 0 0 0 -1.695.3l-4.141 4.141-8.1-8.1 4.141-4.141a1.5 1.5 0 0 0 .3-1.695c-.255-.546-.469-1.06-.655-1.569a1.5 1.5 0 0 0 -1.409-.986h-5.851v-11.455h5.851a1.5 1.5 0 0 0 1.409-.986c.185-.508.4-1.021.655-1.569a1.5 1.5 0 0 0 -.3-1.695l-4.141-4.141 8.1-8.1 4.141 4.141a1.5 1.5 0 0 0 1.695.3c.548-.256 1.061-.47 1.569-.655a1.5 1.5 0 0 0 .986-1.409v-5.85zm-155.755-62.172a8.51 8.51 0 0 1 8.5-8.5h135a8.51 8.51 0 0 1 8.5 8.5v59.172h-9.2a1.5 1.5 0 0 0 -1.5 1.5v6.124l-4.331-4.331a1.5 1.5 0 0 0 -2.121 0l-10.221 10.219a1.48 1.48 0 0 0 -.235 1.767h-115.892a8.51 8.51 0 0 1 -8.5-8.5zm-32.13 143.84v-123.777a12.179 12.179 0 0 1 12.165-12.165h16.965v5.409h-16.965a6.763 6.763 0 0 0 -6.756 6.755v111.778a6.764 6.764 0 0 0 6.756 6.756h55.54a41.366 41.366 0 0 0 8.683 17.409h-64.223a12.178 12.178 0 0 1 -12.165-12.165zm69.652-14.5a38.478 38.478 0 1 1 38.478 38.481 38.522 38.522 0 0 1 -38.478-38.477zm19.728 41.478h37.5a43.2 43.2 0 0 1 43.124 41.654h-123.748a43.2 43.2 0 0 1 43.124-41.651z" fill="#3f3679"/><path d="m191.323 108.392a10.7 10.7 0 1 0 10.7-10.7 10.716 10.716 0 0 0 -10.7 10.7zm10.7-7.7a7.7 7.7 0 1 1 -7.7 7.7 7.713 7.713 0 0 1 7.704-7.704z" fill="#3f3679"/></svg>