<?xml version="1.0" encoding="iso-8859-1"?>
<!-- Generator: Adobe Illustrator 19.0.0, SVG Export Plug-In . SVG Version: 6.00 Build 0)  -->
<svg version="1.1" id="Capa_1" xmlns="http://www.w3.org/2000/svg" xmlns:xlink="http://www.w3.org/1999/xlink" x="0px" y="0px"
	 viewBox="0 0 512 512" style="enable-background:new 0 0 512 512;" xml:space="preserve">
<path style="fill:#EDEBED;" d="M495.484,338.581H16.516C7.395,338.581,0,331.186,0,322.065v-132.13
	c0-9.122,7.395-16.516,16.516-16.516h478.968c9.122,0,16.516,7.395,16.516,16.516v132.129
	C512,331.186,504.605,338.581,495.484,338.581z"/>
<path style="fill:#E2E0E3;" d="M99.097,313.806c-41.047,0-74.323-33.275-74.323-74.323v-66.065h-8.258
	C7.395,173.419,0,180.814,0,189.935v132.129c0,9.122,7.395,16.516,16.516,16.516h478.968c9.122,0,16.516-7.395,16.516-16.516v-8.258
	H99.097z"/>
<g>
	<path style="fill:#FFD164;" d="M256,277.086l-15.325,9.621c-3.377,2.12-7.616-0.959-6.643-4.826l4.414-17.548l-13.886-11.601
		c-3.06-2.557-1.441-7.539,2.537-7.809l18.053-1.224l6.743-16.791c1.486-3.701,6.725-3.701,8.211,0l6.743,16.791l18.053,1.224
		c3.979,0.27,5.597,5.252,2.537,7.809l-13.886,11.601l4.414,17.548c0.973,3.867-3.265,6.946-6.643,4.826L256,277.086z"/>
	<path style="fill:#FFD164;" d="M161.032,277.086l-15.325,9.621c-3.377,2.12-7.616-0.959-6.643-4.826l4.414-17.548l-13.886-11.601
		c-3.06-2.557-1.441-7.539,2.537-7.809l18.053-1.224l6.743-16.791c1.486-3.701,6.725-3.701,8.211,0l6.743,16.791l18.053,1.224
		c3.979,0.27,5.597,5.252,2.537,7.809l-13.886,11.601l4.414,17.548c0.973,3.867-3.265,6.946-6.643,4.826L161.032,277.086z"/>
	<path style="fill:#FFD164;" d="M350.968,277.086l-15.325,9.621c-3.377,2.12-7.616-0.959-6.643-4.826l4.414-17.548l-13.886-11.601
		c-3.06-2.557-1.441-7.539,2.537-7.809l18.053-1.224l6.743-16.791c1.486-3.701,6.725-3.701,8.211,0l6.743,16.791l18.053,1.224
		c3.979,0.27,5.597,5.252,2.537,7.809l-13.886,11.601l4.414,17.548c0.973,3.867-3.265,6.946-6.643,4.826L350.968,277.086z"/>
	<path style="fill:#FFD164;" d="M445.935,277.086l-15.325,9.621c-3.377,2.12-7.616-0.959-6.643-4.826l4.414-17.548l-13.886-11.601
		c-3.06-2.557-1.441-7.539,2.537-7.809l18.053-1.224l6.743-16.791c1.486-3.701,6.725-3.701,8.211,0l6.743,16.791l18.053,1.224
		c3.979,0.27,5.597,5.252,2.537,7.809l-13.886,11.601l4.414,17.548c0.973,3.867-3.265,6.946-6.643,4.826L445.935,277.086z"/>
	<path style="fill:#FFD164;" d="M66.065,277.086l-15.325,9.621c-3.377,2.12-7.616-0.959-6.643-4.826l4.414-17.548l-13.886-11.601
		c-3.06-2.557-1.441-7.539,2.537-7.809l18.053-1.224l6.743-16.791c1.486-3.701,6.725-3.701,8.211,0l6.743,16.791l18.053,1.224
		c3.979,0.27,5.597,5.252,2.537,7.809l-13.886,11.601l4.414,17.548c0.973,3.867-3.265,6.946-6.643,4.826L66.065,277.086z"/>
</g>
<g>
</g>
<g>
</g>
<g>
</g>
<g>
</g>
<g>
</g>
<g>
</g>
<g>
</g>
<g>
</g>
<g>
</g>
<g>
</g>
<g>
</g>
<g>
</g>
<g>
</g>
<g>
</g>
<g>
</g>
</svg>
